<svg width="341" height="128" viewBox="0 0 341 128" fill="none" xmlns="http://www.w3.org/2000/svg">
<path d="M170.913 113.465C264.113 113.465 339.666 88.281 339.666 57.2144C339.666 26.1478 264.113 0.963379 170.913 0.963379C77.7131 0.963379 2.15978 26.1478 2.15978 57.2144C2.15978 88.281 77.7131 113.465 170.913 113.465Z" fill="#0070C0"/>
<path d="M79.6548 55.6372H97.9739V79.4502H89.8175V73.8626C89.8175 75.4188 88.6925 76.9001 86.4424 78.3251C83.9299 79.9189 80.7986 80.7252 77.0297 80.7252C71.4046 80.7252 66.7358 78.7751 63.042 74.8376C59.0482 70.5812 57.0419 64.7686 57.0419 57.4185C57.0419 50.7996 58.7294 45.362 62.1232 41.0869C65.967 36.2494 71.3671 33.8306 78.3423 33.8306C84.4361 33.8306 89.2737 35.5556 92.8925 39.0244C95.7426 41.837 97.3364 45.137 97.6926 48.9058H88.5612C88.5612 48.4183 88.355 47.7808 87.9424 47.0308C87.4924 46.1495 86.8924 45.3433 86.1799 44.5745C85.2611 43.6932 84.2674 42.9995 83.1611 42.4557C81.7923 41.8932 80.3486 41.5932 78.8298 41.5932C75.2485 41.5932 72.3422 42.8307 70.0921 45.3058C67.5796 48.1183 66.3233 52.1872 66.3233 57.531C66.3233 63.0061 67.6546 67.0187 70.3171 69.5687C72.4922 71.6313 75.3797 72.6438 78.9985 72.6438C81.3236 72.6438 83.4049 72.1563 85.2799 71.1625C88.3175 69.5687 89.855 66.8687 89.855 63.0624H79.6548V55.6372Z" fill="white"/>
<path d="M128.799 79.6208H119.668V62.7268L104.199 34.8638H114.924L124.337 54.4391L132.906 34.8638H143.181L128.799 62.8955V79.6208Z" fill="white"/>
<path d="M157.469 37.6006C161.05 35.013 165.232 33.7192 170.032 33.7192C174.794 33.7192 178.957 35.013 182.538 37.6006C188.051 41.5944 190.807 48.1383 190.807 57.2322C190.807 66.2511 188.051 72.7575 182.538 76.7513C178.92 79.3763 174.757 80.6889 170.032 80.6889C165.269 80.6889 161.088 79.3763 157.469 76.7513C151.994 72.7575 149.257 66.2511 149.257 57.2322C149.238 48.1383 151.975 41.5944 157.469 37.6006ZM162.307 69.5699C164.369 71.6324 166.938 72.645 170.013 72.645C173.051 72.645 175.601 71.6137 177.663 69.5699C180.363 66.9073 181.713 62.801 181.713 57.2322C181.713 51.6446 180.363 47.482 177.663 44.7819C175.601 42.7194 173.051 41.7069 170.013 41.7069C166.938 41.7069 164.369 42.7382 162.307 44.7819C159.644 47.482 158.313 51.6258 158.313 57.2322C158.313 62.801 159.644 66.9073 162.307 69.5699Z" fill="white"/>
<path d="M208.844 59.5767V79.6208H199.713V34.8638H208.844V51.8703H226.132V34.8638H235.207V79.6208H226.132V59.5767H208.844Z" fill="white"/>
<path d="M252.439 79.6208H242.858L258.665 34.8638H269.165L284.746 79.6208H274.921L272.015 70.3769H255.514L252.439 79.6208ZM258.046 62.6705H269.408L263.877 44.9702H263.708L258.046 62.6705Z" fill="white"/>
<path d="M340.904 123.31H0.903656V127.997H340.904V123.31Z" fill="#0070C0"/>
</svg>
