<svg width="50" height="50" viewBox="0 0 50 50" fill="none" xmlns="http://www.w3.org/2000/svg">
<rect width="50" height="50" rx="9" fill="#373737"/>
<path d="M38.3613 17.9395L26.4567 8.46393C25.677 7.84342 24.3668 7.84619 23.5106 8.46724C22.6437 9.09475 22.5437 10.135 23.3141 10.791L28.2651 14.9666H13.1488C11.9009 14.9672 10.7014 15.8331 10.4647 16.9061C10.22 17.9985 11.067 18.8943 12.3644 18.8984H20.0149L6.30863 29.8014C5.02056 30.8229 4.60486 32.5234 5.41615 33.5985C6.23886 34.6929 7.9902 34.695 9.29163 33.6046L16.7436 27.2845C16.7436 27.2845 16.6342 28.137 16.6429 28.6492C16.867 32.9723 20.0472 36.98 23.9849 38.7549C30.7699 41.8695 39.9307 39.0183 42.5067 30.9012C43.7317 26.6433 42.7926 21.5801 38.3613 17.9395ZM25.7414 33.0323C20.3826 30.1253 20.3825 22.8184 25.7414 19.9114C31.1003 17.0044 37.8352 20.6579 37.8352 26.4718C37.8352 32.2858 31.1003 35.9393 25.7414 33.0323ZM27.3734 30.4162C23.9552 28.5635 23.9552 23.9063 27.3734 22.0536C30.7915 20.2008 35.0873 22.5293 35.0873 26.2349C35.0873 29.9405 30.7915 32.2691 27.3734 30.4162Z" fill="#F7F7F7"/>
</svg>
