<svg width="50" height="50" viewBox="0 0 50 50" fill="none" xmlns="http://www.w3.org/2000/svg">
<rect width="50" height="50" rx="9" fill="#373737"/>
<path d="M17.7625 5H22.0724V6.82171H19.5647V8.64342H22.0724V10.4651H17.7625V5ZM22.9334 5H27.245V6.58512H24.7373V6.90114H27.245V10.5446H22.9334V8.8817H25.4411V8.56399H22.9334V5ZM28.1076 5H32.4159V6.58512H29.9082V6.90114H32.4159V10.5446H28.1076V8.8817H30.6154V8.56399H28.1076V5Z" fill="#F7F7F7"/>
<path fill-rule="evenodd" clip-rule="evenodd" d="M24.7969 45.0001L13.1854 41.7927L9.76245 12.9209H39.8615L36.4402 41.7894L24.7969 45.0001ZM16.5297 25.9901L16.8491 29.5303H29.1847L28.7716 34.1218L24.8019 35.1899H24.7986L20.8355 34.1251L20.5814 31.302H17.008L17.5063 36.8618L24.7969 38.8747L32.0993 36.8618L32.9889 26.9401L33.0758 25.9901L33.7179 18.8217H15.8893L16.2137 22.3635H29.8184L29.494 25.9901H16.5297Z" fill="#F7F7F7"/>
</svg>
