<svg width="50" height="50" viewBox="0 0 50 50" fill="none" xmlns="http://www.w3.org/2000/svg">
<path d="M17.7917 22.2863C17.5833 21.6239 17.3958 20.9829 17.1875 20.3205C16.9792 19.6581 16.7917 19.0385 16.625 18.4188C16.4583 17.8205 16.3125 17.265 16.1667 16.7521H16.125C15.9375 17.6709 15.7083 18.5897 15.4167 19.5085C15.1042 20.5342 14.7917 21.6026 14.4583 22.6709C14.1875 23.7607 13.8542 24.765 13.5417 25.6624H18.8333C18.7083 25.2137 18.5417 24.6795 18.3542 24.1239C18.1667 23.547 17.9792 22.9273 17.7917 22.2863ZM35.6667 21.6667C34.5208 21.6026 33.4375 22.2222 32.8958 23.2906C32.6458 23.782 32.5 24.2949 32.4375 24.8291H36.8312C37.3729 24.8291 37.7687 24.8291 38.0187 24.8077C38.1854 24.7863 38.3521 24.7436 38.4979 24.6367V24.4231C38.4898 24.051 38.41 23.6842 38.2631 23.3439C38.1162 23.0036 37.905 22.6965 37.6418 22.4403C37.3787 22.184 37.0686 21.9838 36.7296 21.851C36.3906 21.7182 36.0294 21.6556 35.6667 21.6667ZM41.1458 0H8.85417C3.95833 0 0 4.05983 0 9.0812V40.9188C0 45.9402 3.95833 50 8.85417 50H41.1458C46.0417 50 50 45.9402 50 40.9188V9.0812C50 4.05983 46.0417 0 41.1458 0ZM26.4792 35.2799H22.125C21.9792 35.3013 21.8333 35.1923 21.7917 35.0449L20.0833 29.9167H12.3333L10.75 34.9594C10.7083 35.1517 10.5417 35.2799 10.3542 35.2585H6.4375C6.20833 35.2585 6.14583 35.1303 6.20833 34.8739L12.9167 15.1496C12.9792 14.9359 13.0417 14.7436 13.125 14.4872C13.2083 14.0385 13.25 13.5684 13.25 13.0983C13.2292 12.9915 13.3125 12.8846 13.4167 12.8632H18.8125C18.9583 12.8632 19.0625 12.9273 19.0833 13.0342L26.6875 34.9359C26.75 35.1709 26.6896 35.2799 26.4792 35.2799ZM42.8354 26.7521C42.7917 27.156 42.7708 27.4573 42.75 27.6496C42.7292 27.7991 42.6062 27.9273 42.4583 27.9273C42.3333 27.9273 42.1042 27.9487 41.7708 27.9722C41.4396 28.015 41.0417 28.0342 40.5646 28.0342C40.0854 28.0342 39.5833 27.9487 39.0437 27.9487H32.4396C32.5208 28.6111 32.7312 29.2735 33.0854 29.8504C33.4541 30.4255 33.9834 30.8731 34.6042 31.1346C35.4375 31.4979 36.3563 31.6902 37.2729 31.6688C38.0021 31.6453 38.7292 31.5833 39.4375 31.4338C40.0739 31.3505 40.6976 31.1853 41.2937 30.9423C41.3979 30.859 41.4604 30.8996 41.4604 31.1132V34.3846C41.4604 34.4679 41.4396 34.5556 41.4167 34.6389C41.3792 34.6983 41.3303 34.7492 41.2729 34.7885C40.6063 35.0876 39.9188 35.3013 39.1896 35.4295C38.2083 35.6218 37.2313 35.7073 36.2313 35.6859C34.6458 35.6859 33.3146 35.4295 32.2312 34.938C31.212 34.4828 30.3119 33.7873 29.6042 32.9081C28.9396 32.0748 28.4583 31.1346 28.1667 30.109C27.8751 29.0954 27.7285 28.0439 27.7312 26.9872C27.7312 25.8355 27.8979 24.7009 28.2521 23.5897C28.5854 22.5214 29.1062 21.5385 29.8146 20.6624C30.5021 19.8077 31.3542 19.1239 32.3333 18.6325C33.3146 18.141 34.4792 17.9701 35.8125 17.9701C36.9234 17.9435 38.0262 18.1697 39.0417 18.6325C39.8958 19.0171 40.6458 19.594 41.2292 20.3419C41.7708 21.0684 42.2083 21.8803 42.4813 22.7778C42.75 23.6325 42.875 24.5085 42.875 25.3846C42.875 25.8974 42.8542 26.3461 42.8354 26.7521Z" fill="#373737"/>
</svg>
