<svg width="50" height="50" viewBox="0 0 50 50" fill="none" xmlns="http://www.w3.org/2000/svg">
<rect width="50" height="50" rx="9" fill="#373737"/>
<mask id="mask0_240_428" style="mask-type:luminance" maskUnits="userSpaceOnUse" x="9" y="9" width="32" height="32">
<path d="M9 9H41V41H9V9Z" fill="white"/>
</mask>
<g mask="url(#mask0_240_428)">
<path fill-rule="evenodd" clip-rule="evenodd" d="M20.2199 9C16.9573 9 14.3333 11.7373 14.3333 15.0907C14.3333 17.1293 15.3039 18.94 16.7959 20.0453C16.027 20.6214 15.4037 21.3697 14.976 22.2301C14.5484 23.0905 14.3282 24.0392 14.3333 25C14.3333 27.04 15.3039 28.8493 16.7959 29.9547C16.027 30.5308 15.4037 31.279 14.976 32.1395C14.5484 32.9999 14.3282 33.9485 14.3333 34.9093C14.3333 38.2627 16.9573 41 20.2199 41C23.4813 41 26.1066 38.2627 26.1066 34.9093V29.76C27.1377 30.6197 28.4374 31.091 29.7799 31.092C33.0426 31.0907 35.6666 28.3533 35.6666 25C35.6719 24.0391 35.452 23.0904 35.0243 22.2299C34.5966 21.3694 33.9731 20.6212 33.2039 20.0453C33.9729 19.4692 34.5962 18.721 35.0238 17.8605C35.4515 17.0001 35.6716 16.0515 35.6666 15.0907C35.6666 11.7373 33.0426 9 29.7799 9H20.2199ZM16.5453 15.0907C16.5453 12.9693 18.2013 11.2707 20.2199 11.2707H23.8933V18.9107H20.2199C18.2013 18.9107 16.5453 17.2107 16.5453 15.0907ZM29.7799 18.9093H26.1066V11.2693H29.7799C31.7999 11.2693 33.4546 12.9693 33.4546 15.0907C33.4546 17.2107 31.7999 18.9093 29.7799 18.9093ZM16.5466 25C16.5466 22.88 18.2026 21.18 20.2213 21.18H23.8946V28.82H20.2199C18.1999 28.82 16.5466 27.12 16.5466 25ZM26.1053 25C26.1053 22.88 27.7613 21.18 29.7799 21.18C31.7999 21.18 33.4546 22.8787 33.4546 25C33.4546 27.12 31.7999 28.82 29.7799 28.82C27.7613 28.82 26.1053 27.1213 26.1053 25ZM16.5466 34.9093C16.5466 32.7893 18.2026 31.0907 20.2213 31.0907H23.8946V34.9093C23.8946 37.0307 22.2413 38.7293 20.2213 38.7293C18.2026 38.7293 16.5466 37.0307 16.5466 34.9093Z" fill="#F7F7F7"/>
</g>
</svg>
