<svg width="50" height="50" viewBox="0 0 50 50" fill="none" xmlns="http://www.w3.org/2000/svg">
<rect width="50" height="50" rx="9" fill="#373737"/>
<path d="M27.7786 8L29.2286 10.2L30.6786 8V11H32.75V5H30.6786L29.2286 7.2L27.9857 5H25.7071V11H27.7786V8ZM38.7571 11V9H35.8571V5H33.7857V11H38.7571ZM20.9429 11H23.0143V7H24.8786V5H19.0786V7H20.9429V11ZM14.3143 9H16.1786V11H18.25V5H16.1786V7H14.3143V5H12.2429V11H14.3143V9ZM11 13L13.4857 41.8L25.5 45L37.5143 41.8L40 13H11ZM34.4071 22.2H20.3214L20.7357 25.8H33.9929L32.9571 36.8L25.5 38.8L18.0429 36.8L17.4214 31H21.15L21.3571 34L25.5 35L29.6429 34L30.0571 29.4H17.2143L16.1786 18.8H34.8214L34.4071 22.2Z" fill="#F7F7F7"/>
</svg>
