<svg width="50" height="50" viewBox="0 0 50 50" fill="none" xmlns="http://www.w3.org/2000/svg">
<path d="M21.9375 22.2863C21.7292 21.6239 21.5417 20.9829 21.3333 20.3205C21.125 19.6581 20.9375 19.0385 20.7708 18.4188C20.6042 17.8205 20.4583 17.265 20.3125 16.7521H20.2708C20.0833 17.6709 19.8542 18.5897 19.5625 19.5085C19.25 20.5342 18.9375 21.6026 18.6042 22.6709C18.3125 23.7607 18 24.765 17.6875 25.6624H22.9792C22.8542 25.2115 22.6875 24.6795 22.5 24.1218C22.3125 23.547 22.125 22.9273 21.9375 22.2863ZM41.1458 0H8.85417C3.95833 0 0 4.05983 0 9.0812V40.9188C0 45.9402 3.95833 50 8.85417 50H41.1458C46.0417 50 50 45.9402 50 40.9188V9.0812C50 4.05983 46.0417 0 41.1458 0ZM30.625 35.3205H26.2687C26.125 35.3419 25.9792 35.235 25.9375 35.0855L24.2292 30H16.4792L14.8958 35.0214C14.8542 35.2137 14.6875 35.3419 14.5 35.3226H10.5833C10.3542 35.3226 10.2917 35.1923 10.3542 34.938L17.0625 15.1282C17.125 14.9145 17.1875 14.6795 17.2708 14.4231C17.3542 13.9744 17.3958 13.5043 17.3958 13.0342C17.375 12.9273 17.4583 12.8205 17.5625 12.7991H22.9583C23.125 12.7991 23.2083 12.8632 23.2292 12.9701L30.8333 34.9786C30.8958 35.2115 30.8333 35.3205 30.625 35.3205ZM37.7083 35C37.7083 35.235 37.6271 35.3419 37.4396 35.3419H33.3542C33.1458 35.3419 33.0417 35.2115 33.0417 35V18.547C33.0417 18.3333 33.1271 18.2479 33.3146 18.2479H37.4396C37.6271 18.2479 37.7083 18.3547 37.7083 18.547V35ZM37.2729 15.7051C37.0269 15.9614 36.7302 16.1607 36.4029 16.2897C36.0755 16.4187 35.7251 16.4744 35.375 16.453C34.6875 16.4744 34.0208 16.1966 33.5187 15.7051C33.0414 15.1698 32.7872 14.4643 32.8104 13.7393C32.7896 13.0128 33.0604 12.3291 33.5583 11.8376C34.0625 11.3462 34.7292 11.0897 35.4167 11.0897C36.2312 11.0897 36.8521 11.3462 37.3125 11.8376C37.7708 12.3504 38.0208 13.0342 38 13.7393C38.0208 14.4658 37.7708 15.1709 37.2729 15.7051Z" fill="#373737"/>
</svg>
