<svg width="50" height="50" viewBox="0 0 50 50" fill="none" xmlns="http://www.w3.org/2000/svg">
<rect width="50" height="50" rx="9" fill="#373737"/>
<path d="M20.6375 29.5119L20.696 29.5403L20.8003 29.5905C20.9334 29.6538 21.0677 29.7164 21.2032 29.7766L21.2884 29.8144C21.4439 29.8825 21.6003 29.9473 21.7586 30.0096L21.8732 30.0544C22.0193 30.1113 22.1678 30.1663 22.3167 30.2187L22.3724 30.2377C22.5358 30.2946 22.7007 30.3476 22.8672 30.3993L22.9869 30.4347C23.1561 30.4858 23.3231 30.5466 23.4977 30.579C34.579 32.5956 37.7976 23.9325 37.7976 23.9325C35.0941 27.4478 30.2955 28.3751 25.7489 27.3428C25.5767 27.304 25.4094 27.2502 25.2414 27.2006L25.115 27.1624C24.9513 27.1123 24.7884 27.0594 24.6264 27.0039L24.5594 26.9797C24.415 26.9287 24.2714 26.8755 24.1286 26.8202L24.0079 26.773C23.8517 26.7117 23.6966 26.6473 23.5429 26.58L23.4498 26.5388C23.3184 26.4797 23.1876 26.4189 23.0576 26.3567L22.9439 26.3022C22.842 26.2526 22.7411 26.1997 22.6404 26.1479L22.4379 26.042C22.3155 25.9764 22.1944 25.9085 22.0744 25.8384L21.9517 25.77C21.7922 25.6759 21.6343 25.5792 21.4778 25.4802L21.3502 25.3954C21.2366 25.3227 21.1243 25.2482 21.0131 25.1719L20.9046 25.0956C20.7973 25.02 20.6912 24.9434 20.586 24.8657L20.4447 24.7588C20.348 24.6854 20.2522 24.6108 20.1573 24.5349L20.0291 24.4321C19.9084 24.3332 19.789 24.2328 19.6708 24.131L19.6317 24.098C19.504 23.9865 19.3783 23.8728 19.2546 23.757L19.1484 23.6551C19.0566 23.5682 18.9666 23.4805 18.8777 23.3906L18.7716 23.2847C18.6591 23.1697 18.5485 23.0529 18.4397 22.9344L18.4233 22.9168C18.3086 22.7915 18.1963 22.664 18.0865 22.5344L17.9983 22.4297C17.9165 22.3314 17.8352 22.2315 17.7561 22.1308L17.6673 22.0206C17.5722 21.898 17.4789 21.7741 17.3875 21.6488C14.8634 18.2122 13.9564 13.4725 15.9739 9.57997L14.1856 11.8438C11.8941 15.1306 12.1797 19.407 13.9297 22.8999L14.058 23.1483L14.1401 23.3056L14.1911 23.3961L14.2823 23.5592C14.3366 23.6548 14.392 23.7498 14.449 23.8448L14.5445 24.0018C14.6076 24.1035 14.6722 24.2039 14.7385 24.3044L14.821 24.4321C14.9122 24.5676 15.0056 24.7032 15.1017 24.8363L15.1099 24.8469L15.1572 24.9107C15.2406 25.0254 15.3263 25.1386 15.413 25.2505L15.5094 25.3728C15.5868 25.4699 15.6659 25.5667 15.7459 25.6629L15.8362 25.7703C15.9439 25.8971 16.0536 26.023 16.1658 26.1461L16.1724 26.1531L16.1852 26.167C16.2943 26.2862 16.4065 26.4024 16.5198 26.5192L16.6272 26.6272C16.7151 26.7155 16.8042 26.8024 16.8945 26.8889L17.004 26.9927C17.1243 27.1059 17.2459 27.2169 17.3702 27.3258L17.3762 27.3304L17.4399 27.3848C17.5493 27.4792 17.6609 27.5733 17.7731 27.6656L17.911 27.7751C18.0025 27.8484 18.0953 27.9207 18.1887 27.9918L18.3369 28.1043C18.44 28.18 18.5437 28.2544 18.6483 28.3273L18.7619 28.4078L18.7932 28.4299C18.8926 28.4983 18.9941 28.5636 19.0957 28.6293L19.2267 28.7164C19.3822 28.8148 19.5404 28.9119 19.7002 29.0057L19.8311 29.0795C19.9488 29.147 20.0667 29.2132 20.1864 29.278L20.3829 29.3797L20.6375 29.5119ZM21.757 18.3789C22.0053 18.7341 22.2803 19.1565 22.6098 19.4421C22.7292 19.5735 22.8541 19.7011 22.9815 19.8273L23.0797 19.9235C23.2037 20.0433 23.3295 20.161 23.4592 20.2757L23.475 20.289L23.4786 20.293C23.6226 20.4188 23.7712 20.5399 23.9221 20.6591L24.0231 20.7377C24.1747 20.8536 24.329 20.9674 24.4872 21.076L24.5008 21.086L24.7124 21.2252L24.8131 21.2917C24.9262 21.3637 25.0405 21.4345 25.1572 21.5017L25.2057 21.5299C25.306 21.5876 25.4079 21.6445 25.5097 21.6996L25.6176 21.7562L25.8305 21.866L25.8626 21.8805C26.0087 21.9522 26.156 22.0212 26.3064 22.0869L26.4043 22.1271C26.5244 22.1779 26.6459 22.2279 26.7678 22.2745L26.9236 22.3314C27.0346 22.3725 27.1455 22.41 27.2577 22.4472L27.409 22.4956C27.5684 22.545 27.7257 22.6073 27.8919 22.6348C36.4473 24.0499 38.4227 17.4748 38.4227 17.4748C36.642 20.0343 33.1939 21.2551 29.5143 20.302C29.3517 20.2594 29.1902 20.2128 29.0299 20.1622L28.8841 20.1154C28.7704 20.0787 28.6573 20.0397 28.5452 19.9989L28.3924 19.942C28.2699 19.8951 28.1482 19.8461 28.0274 19.7952L27.9292 19.7535C27.7787 19.6881 27.6299 19.619 27.4829 19.5462L27.2589 19.4325L27.1298 19.3662C27.0346 19.3148 26.94 19.2609 26.8466 19.2067L26.779 19.1683C26.6633 19.1009 26.5489 19.0314 26.4358 18.9598L26.3325 18.8906L26.1106 18.7441C25.9537 18.6355 25.7995 18.523 25.6483 18.4068L25.5443 18.3248C23.9337 17.0561 22.6571 15.3212 22.0499 13.3542C21.4139 11.3149 21.5509 9.02506 22.6529 7.167L21.299 9.07499C19.642 11.4547 19.732 14.641 21.0246 17.1581C21.2408 17.5811 21.4855 17.989 21.757 18.3789ZM30.7748 15.4346L30.9873 15.5082L31.081 15.5378C31.1819 15.5693 31.2817 15.6062 31.3857 15.6256C36.1096 16.5366 37.3913 13.2059 37.7324 12.7158C36.6098 14.3288 34.7236 14.7157 32.4091 14.1551C32.2196 14.107 32.0326 14.0494 31.8489 13.9826C31.6227 13.9024 31.4007 13.8105 31.1841 13.7073C30.7728 13.5098 30.3822 13.2719 30.0182 12.9972C27.947 11.4284 26.6605 8.43687 28.0119 6L27.2807 7.00573C26.304 8.44081 26.2079 10.2229 26.8857 11.8072C27.6005 13.4894 29.0654 14.8086 30.7748 15.4346ZM26.2148 34.7387H24.9337C24.8975 34.7401 24.8627 34.7531 24.8344 34.7759C24.8062 34.7986 24.7861 34.8298 24.777 34.8649L24.3223 36.9647L23.8676 39.0645C23.8586 39.0996 23.8386 39.1308 23.8104 39.1536C23.7822 39.1763 23.7474 39.1893 23.7111 39.1907H22.8044C21.9074 39.1907 22.0111 38.5713 22.1948 37.7229L22.2002 37.6972L22.2203 37.5901L22.2239 37.5701L22.2648 37.3523L22.3088 37.119L22.3555 36.8815L22.5622 35.8733L22.7693 34.8652C22.7732 34.8498 22.7735 34.8337 22.7701 34.8182C22.7667 34.8026 22.7596 34.7881 22.7496 34.7758C22.7395 34.7635 22.7267 34.7537 22.7122 34.7472C22.6977 34.7407 22.6818 34.7377 22.6659 34.7384H21.3511C21.3149 34.7397 21.2801 34.7528 21.252 34.7756C21.2239 34.7984 21.204 34.8298 21.1953 34.8649L20.9125 36.2034L20.6299 37.5423L20.6293 37.5441L20.6033 37.6688C20.2777 39.1523 20.3638 40.5674 22.1336 40.6118L22.1851 40.6127H24.9628C24.9991 40.6114 25.0339 40.5984 25.0621 40.5756C25.0903 40.5529 25.1103 40.5216 25.1193 40.4866L25.7183 37.676L26.3173 34.8652C26.3322 34.7956 26.2861 34.739 26.2148 34.7387ZM12.4955 34.7239H11.0889C11.0526 34.7253 11.0177 34.7383 10.9892 34.7609C10.9608 34.7836 10.9404 34.8147 10.931 34.8498L10.7976 35.4373L10.6642 36.0249C10.6488 36.0942 10.6939 36.1508 10.7652 36.1508H12.1827C12.219 36.1495 12.2539 36.1365 12.2822 36.1137C12.3105 36.091 12.3307 36.0597 12.3397 36.0246L12.4686 35.4373L12.5974 34.8501C12.6123 34.7808 12.5668 34.7239 12.4955 34.7239ZM12.0875 36.5526H10.6697C10.6334 36.5541 10.5984 36.5671 10.57 36.5897C10.5416 36.6123 10.5212 36.6434 10.5117 36.6785L10.3126 37.5589L10.1137 38.4391L10.0582 38.6914L9.86694 39.5901L9.67596 40.489C9.6611 40.5583 9.63048 40.6702 9.60775 40.7374C9.60775 40.7374 9.34279 41.5241 8.89747 41.515L8.84169 41.5138L8.45639 41.5068C8.42019 41.5077 8.38492 41.5201 8.35633 41.5423C8.32774 41.5644 8.30702 41.5952 8.29723 41.63L8.15021 42.2469L8.00348 42.8635C7.98681 42.9325 8.03168 42.9894 8.10231 42.9906C8.35483 42.9936 8.92051 43 9.26276 43C10.375 43 10.9616 42.3849 11.3372 40.6149L11.7771 38.5834L12.1897 36.6782C12.2045 36.6095 12.1584 36.5526 12.0875 36.5526ZM38.1938 36.0764L38.135 35.834L38.0771 35.5859L38.0477 35.4606C37.9325 35.0137 37.5945 34.7563 36.8602 34.7563L35.7174 34.7551L34.6648 34.7535H33.4804C33.4442 34.7549 33.4094 34.7679 33.3813 34.7906C33.3531 34.8134 33.3331 34.8446 33.3243 34.8797L33.2719 35.1266L33.21 35.4183L33.1927 35.5003L32.6595 37.9934L32.1532 40.3601C32.1381 40.4297 32.1332 40.515 32.1417 40.5495C32.1502 40.5843 32.2869 40.6127 32.3579 40.6127H33.4262C33.4974 40.6127 33.5874 40.6 33.6262 40.5843C33.665 40.5686 33.7223 40.4291 33.7366 40.3598L33.9263 39.4221L34.1164 38.4842L34.1167 38.4827L34.1422 38.3577L34.3726 37.2806L34.576 36.3293C34.585 36.2943 34.605 36.2631 34.6331 36.2404C34.6612 36.2177 34.696 36.2046 34.7321 36.2031L38.0937 36.2016C38.165 36.2022 38.2098 36.1457 38.1938 36.0764ZM42.5212 33.8858L42.2623 33.8867H41.1865C41.147 33.8889 41.1086 33.8996 41.0737 33.918C41.0388 33.9365 41.0083 33.9622 40.9843 33.9935L38.6048 37.4724C38.5648 37.5311 38.5191 37.5226 38.5033 37.4536L38.3281 36.6872C38.3186 36.6521 38.2982 36.621 38.2697 36.5983C38.2412 36.5757 38.2062 36.5627 38.1698 36.5614H36.6404C36.5692 36.5614 36.5271 36.617 36.5465 36.6851L37.2319 39.0818C37.2513 39.1501 37.2528 39.2621 37.2352 39.3311L36.9366 40.4908C36.9187 40.5598 36.9624 40.6158 37.0336 40.6158H38.5454C38.582 40.6143 38.6172 40.6015 38.6461 40.5791C38.675 40.5567 38.6962 40.5258 38.7067 40.4908L39.0056 39.3311C39.0293 39.2493 39.0665 39.1721 39.1157 39.1026L42.9784 33.9859C43.0214 33.929 42.9981 33.8828 42.9271 33.8834L42.5212 33.8858ZM30.3692 36.8869V36.8857C30.364 36.9223 30.3459 36.9558 30.3181 36.9802C30.2904 37.0046 30.2549 37.0185 30.2179 37.0192H28.2787C28.2114 37.0192 28.1774 36.9738 28.1874 36.9175L28.1893 36.913L28.188 36.9136L28.189 36.9072L28.1977 36.8742C28.383 36.3829 28.7601 36.0603 29.4692 36.0603C30.2676 36.06 30.4235 36.4491 30.3692 36.8869ZM29.8002 34.6528C27.311 34.6528 26.7211 36.1608 26.3901 37.683C26.0593 39.2346 26.0875 40.6848 28.6637 40.6848H28.9759L29.0535 40.6845H29.0717L29.3809 40.6835H29.3864C30.0667 40.6808 30.749 40.6757 31.0252 40.6736C31.0612 40.6717 31.0956 40.6584 31.1234 40.6355C31.1512 40.6126 31.1709 40.5814 31.1795 40.5465L31.2838 40.0379L31.3041 39.9389L31.4284 39.332C31.4324 39.3166 31.4326 39.3005 31.4292 39.285C31.4258 39.2695 31.4188 39.255 31.4087 39.2427C31.3987 39.2304 31.3859 39.2206 31.3713 39.2141C31.3568 39.2077 31.3409 39.2047 31.325 39.2055H29.0093C28.088 39.2055 27.8146 38.9613 27.9155 38.243H31.6173L31.617 38.2433L31.6194 38.243C31.6487 38.2418 31.677 38.2321 31.7009 38.2152C31.7248 38.1983 31.7434 38.1749 31.7543 38.1477L31.7631 38.1157L31.7628 38.116C32.3124 36.0467 32.1547 34.6531 29.8002 34.6528ZM18.035 36.8791L17.9998 37.0028L17.7203 37.9919L17.4408 38.9804C17.4294 39.0154 17.4075 39.0461 17.3781 39.0684C17.3486 39.0906 17.3131 39.1033 17.2762 39.1048H15.7968C14.6746 39.1048 14.4011 38.2285 14.6746 36.9366C14.9477 35.6149 15.4834 34.7935 16.5881 34.7103C18.0977 34.5965 18.3997 35.6561 18.035 36.8791ZM19.0499 39.0288C19.0499 39.0288 19.7475 37.3381 19.9057 36.362C20.1219 35.0552 19.4661 33.1593 16.9336 33.1593C14.4157 33.1593 13.3219 34.969 12.9048 36.9366C12.4877 38.9184 13.0342 40.656 15.5379 40.6418L17.5133 40.6345L19.3591 40.6279C19.3957 40.6261 19.4309 40.6131 19.4598 40.5907C19.4888 40.5683 19.5101 40.5375 19.521 40.5026L19.8427 39.2784C19.8605 39.2094 19.8172 39.1532 19.746 39.1526L19.4377 39.1507L19.1294 39.1489C19.069 39.1486 19.0345 39.1093 19.0417 39.0576L19.0499 39.0288ZM31.5154 37.8969C31.5154 37.908 31.5133 37.9191 31.509 37.9293C31.5048 37.9396 31.4985 37.949 31.4907 37.9569C31.4828 37.9647 31.4734 37.971 31.4632 37.9753C31.4529 37.9795 31.4418 37.9818 31.4307 37.9818C31.4195 37.9818 31.4085 37.9796 31.3982 37.9754C31.3879 37.9711 31.3785 37.9649 31.3706 37.9571C31.3627 37.9492 31.3564 37.9399 31.3522 37.9296C31.3479 37.9193 31.3457 37.9083 31.3456 37.8972C31.3456 37.8747 31.3545 37.8532 31.3704 37.8373C31.3863 37.8213 31.4079 37.8124 31.4304 37.8123C31.4529 37.8123 31.4745 37.8212 31.4904 37.837C31.5064 37.8529 31.5154 37.8744 31.5154 37.8969Z" fill="#F7F7F7"/>
</svg>
