<svg width="50" height="50" viewBox="0 0 50 50" fill="none" xmlns="http://www.w3.org/2000/svg">
<path d="M8.85391 0C3.9582 0 0 4.0601 0 9.08173V40.9183C0 45.9399 3.9582 50 8.85391 50H41.1461C46.0418 50 50 45.9399 50 40.9183V9.08173C50 4.0601 46.0418 0 41.1461 0H8.85391ZM17.9168 12.7139C19.625 12.7139 21.0418 12.9271 22.2082 13.3758C23.2541 13.7403 24.2078 14.3391 25 15.1286C25.6714 15.8192 26.1902 16.6498 26.5211 17.5641C26.8336 18.4615 26.9996 19.3802 26.9996 20.3417C26.9996 22.1795 26.5832 23.6963 25.7496 24.893C24.9168 26.0893 23.7504 26.9872 22.3961 27.5C20.9793 28.0345 19.4168 28.2264 17.7086 28.2264C17.2086 28.2264 16.8746 28.2264 16.6664 28.2051C16.4582 28.1839 16.1664 28.1839 15.7707 28.1839V35.0429C15.7914 35.1923 15.6875 35.3209 15.5418 35.3421H11.5C11.3336 35.3421 11.2508 35.256 11.2508 35.0637V13.0769C11.2508 12.9275 11.3133 12.8413 11.459 12.8413C11.8133 12.8413 12.1465 12.8413 12.6254 12.8205C13.1254 12.7989 13.6461 12.7997 14.2086 12.778C14.7711 12.7568 15.3754 12.7564 16.0211 12.7352C16.6672 12.7135 17.2918 12.7139 17.9168 12.7139ZM18.3816 16.9223C18.2753 16.9202 18.1689 16.9204 18.0625 16.9231C17.5211 16.9231 17.0418 16.9235 16.6457 16.9451C16.2293 16.9235 15.9379 16.9447 15.7922 16.9659V24.1454C16.0836 24.1671 16.3539 24.1879 16.6039 24.1879H17.7086C18.5211 24.1879 19.3336 24.0597 20.1043 23.8033C20.7711 23.611 21.3543 23.2047 21.8125 22.6707C22.25 22.1362 22.4586 21.4103 22.4586 20.47C22.4783 19.8024 22.3122 19.1428 21.9797 18.5685C21.6254 18.0132 21.125 17.5853 20.5207 17.3506C19.8461 17.0701 19.1238 16.9371 18.3816 16.9223ZM35.8543 18.0132C36.7086 18.0132 37.5836 18.0765 38.4375 18.2047C39.0625 18.2901 39.6664 18.4619 40.2289 18.6971C40.3125 18.7184 40.3957 18.8033 40.4371 18.8886C40.4582 18.974 40.4793 19.0597 40.4793 19.145V22.6282C40.4797 22.6697 40.4704 22.7107 40.4524 22.7478C40.4343 22.7849 40.4079 22.8171 40.3754 22.8417C40.1879 22.8846 40.0836 22.8846 40.0004 22.8417C39.3754 22.5 38.7082 22.2652 37.9996 22.1158C37.2289 21.9447 36.4582 21.8373 35.6668 21.8373C35.25 21.8157 34.8121 21.8806 34.4164 21.9872C34.1453 22.0513 33.9164 22.2011 33.7707 22.4147C33.6668 22.5857 33.6043 22.7993 33.6043 22.9916C33.6043 23.1839 33.6879 23.3762 33.8129 23.5469C34.0004 23.7821 34.25 23.9748 34.5207 24.1246C35.0038 24.3808 35.4973 24.6156 36 24.8285C37.125 25.2131 38.2082 25.748 39.2082 26.389C39.8957 26.8377 40.4582 27.4363 40.8539 28.1627C41.1889 28.8442 41.3538 29.6004 41.3336 30.3634C41.3502 31.3734 41.0665 32.3646 40.5203 33.2051C39.9394 34.058 39.1287 34.7187 38.1875 35.1066C37.1664 35.5553 35.9164 35.7905 34.4164 35.7905C33.4578 35.7905 32.5211 35.7051 31.5836 35.5128C30.8488 35.3826 30.1342 35.1526 29.4586 34.8289C29.3129 34.7436 29.2082 34.5938 29.2289 34.4227V30.7051C29.2289 30.641 29.2496 30.5553 29.3121 30.5128C29.3746 30.47 29.4371 30.492 29.4996 30.5345C30.3022 31.0198 31.174 31.3732 32.0832 31.5817C32.875 31.7953 33.7086 31.9018 34.5422 31.9018C35.3336 31.9018 35.8961 31.7949 36.2711 31.6026C36.6043 31.4531 36.8332 31.0897 36.8332 30.7051C36.8332 30.4062 36.6668 30.1278 36.3332 29.8498C36 29.5721 35.3125 29.252 34.2918 28.8462C33.2445 28.4677 32.2499 27.9505 31.3332 27.3077C30.6805 26.8305 30.1396 26.2101 29.75 25.4916C29.4175 24.8167 29.253 24.068 29.2711 23.3121C29.2711 22.3934 29.5207 21.5172 29.9789 20.7268C30.4996 19.8722 31.2711 19.1883 32.1672 18.7612C33.1461 18.2484 34.3746 18.0132 35.8543 18.0132Z" fill="#373737"/>
</svg>
