<svg width="50" height="50" viewBox="0 0 50 50" fill="none" xmlns="http://www.w3.org/2000/svg">
<path d="M21.1458 17.3504C20.3638 17.036 19.5269 16.8905 18.6875 16.9231C17.9303 16.9069 17.1728 16.9211 16.4167 16.9658V24.1453L17.2292 24.188H18.3333C19.1458 24.188 19.9583 24.0598 20.7292 23.8034C21.3958 23.6111 21.9792 23.2051 22.4375 22.6709C22.875 22.1367 23.0833 21.4103 23.0833 20.4701C23.1304 19.8055 22.9673 19.1432 22.6183 18.5812C22.2693 18.0192 21.7529 17.5876 21.1458 17.3504ZM41.1458 0H8.85417C6.5059 0 4.2538 0.956766 2.59333 2.65982C0.932847 4.36288 0 6.67271 0 9.0812L0 40.9188C0 45.9402 3.95833 50 8.85417 50H41.1458C46.0417 50 50 45.9402 50 40.9188V9.0812C50 4.05983 46.0417 0 41.1458 0ZM26.375 24.8932C25.5417 26.0897 24.375 26.9872 23.0208 27.5C21.6042 28.0342 20.0417 28.2265 18.3333 28.2265L17.2917 28.2051L16.3958 28.1838V35.0427C16.4017 35.0781 16.4004 35.1143 16.3918 35.149C16.3832 35.1838 16.3676 35.2163 16.346 35.2445C16.3244 35.2727 16.2973 35.2959 16.2664 35.3127C16.2355 35.3295 16.2015 35.3394 16.1667 35.3419H12.125C11.9583 35.3419 11.875 35.2564 11.875 35.0641V13.0769C11.875 12.9273 11.9375 12.8419 12.0833 12.8419L13.25 12.8205L14.8333 12.7778L16.6458 12.735L18.5417 12.7137C20.25 12.7137 21.6667 12.9273 22.8333 13.3761C23.875 13.7393 24.8333 14.3376 25.625 15.1282C26.2917 15.812 26.8125 16.6453 27.1458 17.5641C27.4583 18.4615 27.625 19.3803 27.625 20.3419C27.625 22.1795 27.2083 23.6966 26.375 24.8932ZM40.5833 18.1624V22.3291C40.5833 22.5 40.4792 22.5641 40.25 22.5641C38.8754 22.5129 37.5076 22.7832 36.25 23.3547C35.8542 23.547 35.4792 23.8034 35.1875 24.1453V35.0427C35.1875 35.2564 35.1042 35.3419 34.9167 35.3419H30.8125C30.7741 35.3479 30.735 35.346 30.6974 35.3363C30.6597 35.3267 30.6243 35.3094 30.5933 35.2855C30.5623 35.2616 30.5362 35.2316 30.5166 35.1973C30.497 35.1629 30.4843 35.1249 30.4792 35.0855V23.1624L30.4583 21.5598L30.4167 19.8932C30.4167 19.4017 30.375 18.9316 30.3333 18.4402C30.3262 18.3896 30.337 18.338 30.3638 18.2949C30.3905 18.2518 30.4315 18.2199 30.4792 18.2051H34.1875C34.3958 18.2051 34.5625 18.3547 34.6042 18.547C34.7924 19.1841 34.8838 19.8472 34.875 20.5128C35.5 19.765 36.2708 19.1453 37.125 18.6752C38.0934 18.1235 39.1839 17.8365 40.2917 17.8419C40.4375 17.8205 40.5625 17.9273 40.5833 18.0769V18.1624Z" fill="#373737"/>
</svg>
