<svg width="50" height="50" viewBox="0 0 50 50" fill="none" xmlns="http://www.w3.org/2000/svg">
<rect width="50" height="50" rx="9" fill="#373737"/>
<path d="M20.9702 33.5902C20.9945 34.2823 20.5434 34.4523 20.1938 33.7724C16.3073 26.6977 11.2177 25.2732 6.79471 26.6816C5.20104 26.633 6.4369 23.023 6.79471 22.0515C7.15253 21.0802 10.7299 21.7601 12.356 22.3105C14.1446 16.1588 11.9494 13.9571 11.4942 13.3743C11.0389 12.7915 11.616 12.573 11.616 12.573C11.616 12.573 15.3235 11.4074 16.8846 11.0917C18.4456 10.776 18.8278 11.2698 19.153 12.662C20.3889 17.6158 15.6163 23.8161 15.6163 23.8161C15.6163 23.8161 16.0635 24.7065 17.327 25.0627C20.8668 21.7602 21.8606 16.9197 22.0313 13.6252C22.0313 13.6252 21.9092 12.4516 22.8606 13.0344C23.8118 13.6172 27.2267 16.5068 27.8364 20.7686C28.0396 22.4967 26.5356 23.2657 26.5356 23.2657C22.8769 25.8721 19.4481 26.7188 19.0049 27.0476C20.8913 29.7092 21.0556 32.8739 20.9702 33.5902ZM22.0556 29.0614C22.0069 29.3164 22.2752 30.8098 22.0556 32.0483C21.6898 32.9709 21.5663 33.5296 22.2867 34.088C23.007 34.6466 28.3893 37.1719 31.5439 40.5392C32.7513 41.7615 33.3611 40.2438 32.4708 39.5396C32.2269 39.2725 31.0805 38.2526 31.1049 37.9005C31.1293 37.5484 31.7878 38.2284 32.0317 38.4833C31.3731 37.1599 32.8123 35.4722 34.3489 37.3784C34.975 37.9814 34.5359 39.4061 33.9994 39.7946C34.5873 39.2094 33.5644 37.7507 32.7472 38.5642C32.3245 38.969 33.487 39.8836 33.7473 40.1103C34.0075 40.3369 34.9343 39.5679 35.2595 39.0337C35.4989 38.702 35.843 38.4226 36.341 36.2816C36.4995 35.7271 36.705 35.5263 37.2027 35.0307C37.7006 34.535 44.9593 28.4786 45.7642 25.9287C46.2358 24.6013 46.0081 24.1318 45.0081 25.0789C44.008 26.0259 38.4711 30.1541 36.3734 30.7369C34.2758 31.3197 33.9099 30.2634 34.2148 30.0084C34.4002 29.8236 39.0645 24.8037 33.8813 27.5073C31.9831 28.2034 30.1293 26.6654 29.7391 25.2893C28.9158 22.6688 28.9422 22.1486 27.0722 23.7513C26.0639 24.577 24.2753 25.4674 23.5924 25.7102C21.5435 26.1959 20.7304 28.4786 22.389 28.7052C24.0476 28.9318 24.946 28.6728 24.4948 29.1464C24.0435 29.6199 23.3727 30.0448 24.1289 30.4577C24.885 30.8705 26.3289 31.8904 26.4119 31.9875C26.4949 32.0847 27.1656 32.1697 27.3608 31.684C27.5559 31.1983 27.3852 31.0648 27.251 30.9919C27.1168 30.919 27.2632 30.7004 27.5803 30.7369C27.8974 30.7733 28.6535 30.482 28.8365 30.3483C29.0194 30.2148 31.1659 29.8627 31.6903 30.6034C31.095 30.7885 30.922 30.405 30.0805 30.7004C29.6191 30.8781 28.4985 31.0193 27.9706 32.2061C27.5762 33.0924 27.4299 34.9217 25.8201 34.4037C24.2102 33.8856 22.5556 33.3959 22.8118 31.7811C23.0679 30.1663 22.9582 29.1221 22.0556 29.0614Z" fill="#F7F7F7"/>
</svg>
