<svg width="193" height="60" viewBox="0 0 193 60" fill="none" xmlns="http://www.w3.org/2000/svg">
<path d="M80.2398 18.72L72.1098 10.59C71.3298 9.81 70.0598 9.81 69.2798 10.59L58.5698 21.3C58.3798 21.49 58.2398 21.71 58.1398 21.95C57.8398 22.68 57.9798 23.54 58.5698 24.13L63.4598 29.02L69.2798 34.84C69.6698 35.23 70.1798 35.43 70.6898 35.43C71.1998 35.43 71.7098 35.23 72.0998 34.84L80.2798 26.66L82.8198 24.12C83.5998 23.34 83.5998 22.07 82.8198 21.29L80.2398 18.71V18.72Z" fill="#FF5C00"/>
<path d="M169.64 13.67C161.15 13.67 153.73 18.36 149.84 25.28C148.02 24.76 146.19 24.26 144.36 23.8C144.37 23.52 144.38 23.25 144.38 22.97C144.39 22.88 144.41 22.8 144.41 22.71C144.41 22.62 144.4 22.54 144.38 22.45C144.23 10.06 134.12 0.01 121.69 0C110.78 0 101.65 7.73 99.47 18C98.71 18 97.96 17.97 97.2 17.97C95.78 17.97 94.36 17.99 92.94 18.02C90.75 7.74 81.61 0 70.69 0C58.16 0 47.97 10.19 47.97 22.72C47.97 23.26 48 23.79 48.03 24.32C46.28 24.78 44.53 25.27 42.78 25.78C38.96 18.59 31.4 13.67 22.7 13.67C10.19 13.67 0 23.86 0 36.39C0 48.92 10.19 59.11 22.71 59.11C35.23 59.11 45.42 48.92 45.42 36.39C45.42 35.37 45.35 34.37 45.22 33.39C46.81 32.92 48.39 32.48 49.99 32.06C53.56 39.94 61.49 45.43 70.69 45.43C82.13 45.43 91.61 36.93 93.17 25.92C95.17 25.88 97.17 25.87 99.17 25.9C100.72 36.92 110.21 45.43 121.66 45.43C121.66 45.43 121.67 45.43 121.68 45.43C131.05 45.42 139.1 39.71 142.56 31.59C144.11 31.98 145.65 32.4 147.19 32.84C147.01 34 146.91 35.18 146.91 36.39C146.91 48.92 157.1 59.11 169.62 59.11C182.14 59.11 192.33 48.92 192.33 36.39C192.33 23.86 182.14 13.68 169.62 13.68L169.64 13.67ZM24.85 54.97C25.83 46.35 32.69 39.5 41.3 38.52C40.32 47.14 33.46 53.99 24.85 54.97ZM4.13 38.52C12.75 39.5 19.6 46.36 20.58 54.97C11.96 53.99 5.11 47.13 4.13 38.52ZM20.58 17.81C19.6 26.43 12.74 33.28 4.13 34.26C5.11 25.64 11.97 18.79 20.58 17.81ZM38.86 26.99C40.14 29.18 40.99 31.64 41.29 34.27C37.37 33.82 33.82 32.15 31.02 29.66C27.66 26.67 25.38 22.51 24.84 17.82C30.83 18.5 35.95 22.02 38.86 27V26.99ZM11.31 36.4C16.36 34.12 20.43 30.05 22.71 25C23.75 27.31 25.18 29.39 26.89 31.21C28.92 33.37 31.36 35.16 34.1 36.39C32.91 36.93 31.78 37.57 30.72 38.29C27.25 40.64 24.45 43.92 22.71 47.78C20.43 42.73 16.36 38.66 11.31 36.38V36.4ZM70.68 41.44C63.36 41.44 57.02 37.2 53.95 31.06C52.78 28.72 52.09 26.1 52 23.33C52 23.13 51.97 22.93 51.97 22.73C51.97 12.41 60.37 4.01 70.69 4.01C79.44 4.01 86.78 10.05 88.82 18.17C89.19 19.63 89.4 21.15 89.4 22.72C89.4 23.86 89.28 24.98 89.08 26.07C87.5 34.8 79.86 41.44 70.68 41.44ZM115.56 26.07C115.56 26.07 115.49 26 115.45 25.97C114.97 25.57 114.48 25.2 113.97 24.84C113.91 24.8 113.84 24.75 113.78 24.71C113.28 24.37 112.77 24.05 112.24 23.74C112.16 23.69 112.08 23.65 112 23.6C111.48 23.31 110.94 23.04 110.4 22.79C110.35 22.77 110.31 22.74 110.26 22.72C110.31 22.7 110.35 22.67 110.4 22.65C110.95 22.4 111.48 22.13 112 21.84C112.08 21.79 112.16 21.75 112.24 21.7C112.77 21.4 113.28 21.08 113.78 20.73C113.84 20.69 113.91 20.64 113.97 20.6C114.48 20.24 114.97 19.87 115.45 19.47C115.49 19.44 115.52 19.41 115.56 19.37C115.74 19.22 115.91 19.05 116.08 18.89C116.87 18.18 117.63 17.43 118.31 16.61C118.34 16.57 118.37 16.54 118.4 16.51C118.8 16.03 119.17 15.53 119.53 15.02C119.57 14.96 119.62 14.9 119.66 14.84C120 14.34 120.33 13.82 120.63 13.29C120.67 13.21 120.72 13.14 120.76 13.06C121.05 12.53 121.33 12 121.58 11.45C121.6 11.41 121.63 11.36 121.65 11.32C121.67 11.37 121.7 11.41 121.72 11.45C121.97 12 122.24 12.54 122.54 13.06C122.58 13.14 122.63 13.22 122.68 13.3C122.98 13.83 123.3 14.34 123.65 14.84C123.69 14.9 123.74 14.96 123.78 15.03C124.14 15.54 124.51 16.04 124.91 16.51C124.94 16.55 124.97 16.58 125 16.62C125.84 17.61 126.76 18.54 127.75 19.37C127.79 19.4 127.82 19.43 127.86 19.46C128.34 19.86 128.83 20.23 129.34 20.59C129.38 20.62 129.41 20.65 129.45 20.68C129.47 20.7 129.5 20.71 129.52 20.73C130.02 21.07 130.53 21.39 131.06 21.7C131.14 21.75 131.22 21.79 131.3 21.84C131.82 22.13 132.36 22.4 132.91 22.66C132.96 22.68 133 22.71 133.05 22.73C133 22.75 132.96 22.78 132.91 22.8C132.36 23.05 131.83 23.32 131.3 23.62C131.22 23.66 131.14 23.71 131.06 23.76C130.53 24.06 130.02 24.38 129.52 24.73C129.46 24.77 129.4 24.82 129.33 24.86C128.82 25.22 128.32 25.59 127.85 25.99C127.81 26.02 127.78 26.05 127.74 26.08C126.99 26.71 126.29 27.41 125.63 28.13C125.42 28.36 125.19 28.59 124.99 28.83C124.96 28.87 124.93 28.9 124.9 28.94C124.5 29.42 124.13 29.91 123.77 30.42C123.73 30.48 123.68 30.54 123.64 30.61C123.3 31.11 122.97 31.62 122.67 32.15C122.62 32.23 122.58 32.31 122.53 32.39C122.24 32.91 121.96 33.45 121.71 34C121.69 34.05 121.66 34.09 121.64 34.13C121.62 34.09 121.59 34.04 121.57 34C121.32 33.45 121.04 32.91 120.75 32.39C120.71 32.31 120.66 32.24 120.62 32.16C120.32 31.63 119.99 31.11 119.65 30.61C119.61 30.55 119.56 30.49 119.52 30.43C119.16 29.92 118.79 29.42 118.39 28.94C118.36 28.9 118.33 28.87 118.3 28.84C117.73 28.16 117.11 27.54 116.47 26.93C116.17 26.64 115.86 26.35 115.54 26.08L115.56 26.07ZM169.63 55.11C159.31 55.11 150.92 46.71 150.92 36.39C150.92 35.57 150.99 34.77 151.09 33.98C151.44 31.24 152.39 28.69 153.8 26.45C157.12 21.19 162.96 17.67 169.63 17.67C179.95 17.67 188.34 26.07 188.34 36.38C188.34 46.69 179.94 55.1 169.63 55.1V55.11Z" fill="#FF5C00"/>
<path d="M185.47 34.9701L171.05 20.5501C170.27 19.7701 169 19.7701 168.22 20.5501L160.22 28.5501L153.91 34.8601L153.81 34.9601C153.03 35.7401 153.03 37.0101 153.81 37.7901L168.23 52.2101C168.62 52.6001 169.13 52.8001 169.64 52.8001C170.15 52.8001 170.66 52.6001 171.05 52.2101L185.47 37.7901C186.25 37.0101 186.25 35.7401 185.47 34.9601V34.9701ZM158.15 36.2901L164.4 30.0401L169.65 24.7901L181.24 36.3801L169.65 47.9701L158.06 36.3801L158.15 36.2901Z" fill="#FF5C00"/>
</svg>
