<svg width="195" height="188" viewBox="0 0 195 188" fill="none" xmlns="http://www.w3.org/2000/svg">
<path d="M166.274 11.8034C162.366 12.8931 158.173 12.5625 154.415 11.0144C140.121 5.13754 123.949 4.59645 107.521 6.92614C102.764 7.6025 97.999 6.28736 94.0911 3.49174C83.4572 -4.10604 67.7055 1.28981 64.0682 13.9302C62.7305 18.6046 59.7846 22.6327 55.5987 25.0977C41.305 33.5221 29.0177 44.0283 21.5101 57.5555C19.6163 60.9673 16.708 63.6728 13.1909 65.3712C16.0692 64.1161 19.2481 63.4473 22.5247 63.4473C28.2211 63.4548 33.5945 65.4463 37.6601 69.0761C39.351 70.5867 40.7639 72.3227 41.8911 74.254C35.631 61.3656 39.9522 45.5914 51.7961 37.3173C52.0967 37.1068 52.4048 36.8964 52.7054 36.686C58.7175 32.5827 66.5482 32.5452 72.7783 36.3177C82.9612 42.4726 97.0671 37.5953 101.17 26.3527C103.665 19.5215 109.858 14.7118 117.11 14.1782C118.425 14.0805 119.733 14.0054 121.033 13.9603C135.221 13.4417 147.493 23.5421 150.146 37.4901C150.274 38.174 150.439 38.8503 150.627 39.5192C149.41 34.8748 149.613 29.8021 151.431 25.1202C154.753 16.553 162.479 11.2774 172.113 10.9918C170.091 11.0068 168.13 11.2849 166.266 11.8034H166.274ZM89.5144 21.1297L84.1862 26.4504C83.8931 26.7435 83.5098 26.8938 83.1266 26.8938C82.7433 26.8938 82.3525 26.7435 82.0594 26.4504L76.7387 21.1297C76.1525 20.5435 76.1525 19.5891 76.7387 19.0029L82.0594 13.6822C82.6456 13.096 83.6 13.096 84.1862 13.6822L89.5144 19.0029C90.1006 19.5891 90.1006 20.5435 89.5144 21.1297Z" fill="#F28F4D"/>
<path d="M192.893 24.3685C190.878 19.5964 187.196 15.4857 181.86 13.1184C178.952 11.7507 175.721 10.9841 172.301 10.9841C172.241 10.9841 172.181 10.9916 172.121 10.9916C162.486 11.2772 154.761 16.5528 151.439 25.1201C149.621 29.802 149.418 34.8747 150.635 39.519C151.65 43.3743 153.634 46.9289 156.519 49.717C160.352 53.4145 160.908 59.2312 157.82 63.2517C153.431 68.9557 147.524 74.4417 140.264 79.5595C138.453 80.8371 136.349 81.506 134.162 81.506C131.975 81.506 130.021 80.8596 128.338 79.6347C123.663 76.2303 118.087 74.4342 112.21 74.4342C99.2993 74.4342 87.9891 82.8587 84.705 94.9279C83.5852 99.0537 79.8277 101.992 75.3562 102.263C73.297 102.383 71.2604 102.443 69.299 102.443C63.1742 102.443 57.4702 101.842 52.3524 100.654C47.3023 99.4821 44.0783 94.5146 44.8448 89.1037C44.9951 88.0516 45.0778 86.9694 45.0778 85.8948C45.0778 85.8271 45.0778 85.7595 45.0778 85.6919C44.95 82.7309 44.4014 79.9729 43.4395 77.4628C43.1389 76.7188 42.8007 75.9899 42.4249 75.2834C42.2371 74.9453 42.0717 74.5996 41.9064 74.2539C40.7791 72.3225 39.3663 70.5865 37.6754 69.076C33.6097 65.4462 28.2364 63.4547 22.54 63.4471C19.2634 63.4471 16.0845 64.116 13.2062 65.371C11.0869 66.2954 9.12547 67.5354 7.40451 69.076C4.80428 71.3906 2.85787 74.2614 1.61036 77.553C0.603336 80.0631 0.0397024 82.791 0.00964193 85.6468C0.00964193 85.7069 0.00212682 85.7745 0.00212682 85.8347V85.9173C-0.050479 89.6674 0.87388 93.2972 2.65496 96.5512C5.36792 101.864 9.8845 105.381 14.9873 107.095C17.4597 107.997 20.0675 108.478 22.6903 108.478C23.7649 108.478 24.8396 108.395 25.8917 108.237C26.4929 108.147 27.0941 108.102 27.6878 108.102C29.529 108.102 31.2349 108.523 32.7755 109.357C42.5527 114.663 55.366 117.466 69.8326 117.466C71.561 117.466 73.3271 117.421 75.0931 117.346C75.4614 117.323 75.8447 117.315 76.2129 117.315C82.458 117.315 88.6279 119.705 93.5878 124.049C98.5704 128.408 104.77 130.715 111.511 130.715C125.354 130.715 137.153 121.193 139.558 108.064C140.843 101.053 144.548 95.0256 149.974 91.1028C163.508 81.3331 172.91 70.4212 177.937 58.66C178.862 56.4881 180.463 54.7296 182.447 53.6775C187.294 51.3628 190.713 47.5752 192.69 43.1864C194.095 40.2254 194.861 36.9488 194.861 33.5295C194.861 30.1101 194.163 27.1717 192.908 24.3685H192.893ZM180.838 50.2656C178.418 51.5056 176.465 53.4596 175.142 55.8193C174.894 56.2627 174.661 56.7136 174.465 57.187C169.265 69.3465 159.315 79.7173 147.764 88.0591C141.384 92.6659 137.266 99.6474 135.853 107.388C133.636 119.465 122.634 126.957 111.496 126.957C106.04 126.957 100.547 125.161 96.0453 121.216C90.5066 116.376 83.5176 113.558 76.1979 113.558C75.7695 113.558 75.3336 113.573 74.9053 113.588C73.2144 113.663 71.5159 113.708 69.8175 113.708C57.35 113.708 44.7095 111.566 34.5491 106.058C34.2335 105.885 33.9103 105.727 33.5797 105.584C31.7159 104.75 29.7094 104.344 27.6728 104.344C26.8912 104.344 26.1021 104.404 25.3205 104.525C24.4413 104.652 23.5545 104.72 22.6752 104.72C12.7929 104.72 3.56429 96.5587 3.74465 85.8948C4.23314 73.4347 13.379 67.2047 22.5324 67.2047C31.6783 67.2122 40.8242 73.4347 41.3202 85.8948C41.3202 86.8041 41.2526 87.6984 41.1248 88.5702C40.719 91.4485 41.1774 94.2816 42.3197 96.7541C44.0257 100.444 47.2647 103.337 51.5032 104.314C57.1997 105.637 63.1967 106.201 69.299 106.201C71.3807 106.201 73.4774 106.133 75.5816 106.013C81.5336 105.66 86.7641 101.669 88.3273 95.9199C91.3333 84.8953 101.682 78.1918 112.21 78.1918C117.043 78.1918 121.92 79.6046 126.128 82.6708C128.518 84.4143 131.336 85.2635 134.162 85.2635C136.988 85.2635 139.956 84.3767 142.429 82.6332C149.455 77.6808 155.828 72.0068 160.795 65.5438C163.373 62.1921 164.102 58.0513 163.215 54.2035C162.599 51.5507 161.224 49.0332 159.135 47.0116C148.335 36.5956 153.686 15.2452 172.301 14.7417C182.68 14.7417 191.089 23.1511 191.089 33.5295C191.089 40.8342 186.926 47.1544 180.838 50.2656Z" fill="#FFBA53"/>
<path d="M127.03 103.879C127.03 104.713 126.361 105.382 125.527 105.382C118.831 105.382 113.375 110.838 113.375 117.534C113.375 118.36 112.706 119.037 111.872 119.037C111.038 119.037 110.369 118.36 110.369 117.534C110.369 110.838 104.921 105.382 98.2247 105.382C97.3905 105.382 96.7217 104.713 96.7217 103.879C96.7217 103.045 97.3905 102.376 98.2247 102.376C104.921 102.376 110.369 96.9273 110.369 90.2313C110.369 89.3971 111.045 88.7283 111.872 88.7283C112.699 88.7283 113.375 89.3971 113.375 90.2313C113.375 96.9273 118.831 102.376 125.527 102.376C126.361 102.376 127.03 103.052 127.03 103.879Z" fill="#F28F4D"/>
<path d="M179.959 34.965L174.12 40.8117C173.827 41.1048 173.436 41.2551 173.053 41.2551C172.669 41.2551 172.286 41.1048 171.993 40.8117L166.146 34.965C165.56 34.3788 165.56 33.4319 166.146 32.8457L171.993 26.999C172.579 26.4128 173.534 26.4128 174.12 26.999L179.959 32.8457C180.545 33.4319 180.545 34.3788 179.959 34.965Z" fill="#F28F4D"/>
<path d="M30.4909 86.2934C30.4909 90.6822 26.9213 94.2519 22.5324 94.2519C18.1436 94.2519 14.5664 90.6822 14.5664 86.2934C14.5664 81.9046 18.1436 78.3274 22.5324 78.3274C26.9213 78.3274 30.4909 81.8971 30.4909 86.2934Z" fill="#F28F4D"/>
<path d="M11.8386 157.709C11.8386 151.089 16.0922 146.362 25.0803 146.362C32.3624 146.362 36.5258 149.48 37.8484 154.207H41.6285V146.835H51.0825V186.83H41.6285V178.556H38.0814C37.0443 183.757 32.8358 187.304 25.0803 187.304C16.0997 187.304 11.8386 182.577 11.8386 175.956V157.709ZM12.8306 166.885C18.5496 167.118 25.0727 171.943 25.0727 185.801C25.0727 171.951 31.5508 167.081 37.2698 166.84C31.5508 166.6 25.0727 161.783 25.0727 147.88C25.0727 161.783 18.5496 166.652 12.8306 166.885ZM38.3144 170.996H41.621V161.775H38.3144V170.996Z" fill="#FFBA53"/>
<path d="M60.589 154.162H55.5764V146.835H82.9991V154.162H77.9865L83.4725 186.83H73.778L69.284 155.056L64.79 186.83H55.0955L60.5815 154.162H60.589ZM85.5993 146.835H95.0533V186.83H85.5993V146.835Z" fill="#F28F4D"/>
<path d="M99.7803 157.709C99.7803 151.089 103.801 146.362 112.781 146.362C121.762 146.362 125.783 151.089 125.783 157.709V175.956C125.783 182.577 121.762 187.304 112.781 187.304C103.801 187.304 99.7803 182.577 99.7803 175.956V157.709ZM100.772 166.885C106.491 167.118 112.781 171.943 112.781 185.801C112.781 171.951 119.072 167.081 124.745 166.84C119.072 166.6 112.781 161.783 112.781 147.88C112.781 161.783 106.491 166.652 100.772 166.885ZM128.15 146.843H137.604V160.978H141.857V169.02H137.604V186.845H128.15V146.85V146.843Z" fill="#FFBA53"/>
<path d="M148.523 154.162H143.511V146.835H170.933V154.162H165.921L171.407 186.83H161.712L157.218 155.056L152.724 186.83H143.03L148.516 154.162H148.523ZM173.534 146.835H182.988V186.83H173.534V146.835Z" fill="#F28F4D"/>
</svg>
