<svg width="361" height="76" viewBox="0 0 361 76" fill="none" xmlns="http://www.w3.org/2000/svg">
<path d="M111.921 14.1471C110.751 11.3771 108.611 8.99704 105.521 7.61704C103.831 6.82704 101.961 6.37705 99.9712 6.37705C99.9412 6.37705 99.9012 6.37705 99.8712 6.37705C98.7012 6.37705 97.5612 6.54708 96.4812 6.84708C94.2112 7.47708 91.7812 7.28706 89.6012 6.38706C81.3112 2.97706 71.9212 2.66706 62.3912 4.01706C59.6312 4.40706 56.8612 3.64707 54.6012 2.02707C48.4312 -2.38293 39.2912 0.747071 37.1812 8.08707C36.4012 10.7971 34.6912 13.1371 32.2712 14.5671C23.9812 19.4571 16.8512 25.5571 12.4912 33.4071C11.3912 35.3871 9.70119 36.9571 7.66119 37.9471C6.43119 38.4871 5.29119 39.2071 4.29119 40.0971C2.78119 41.4371 1.65119 43.1071 0.931186 45.0171C0.351186 46.4771 0.0211857 48.0571 0.00118567 49.7171C0.00118567 49.7471 0.00118567 49.7871 0.00118567 49.8271V49.877C-0.0288143 52.057 0.511187 54.157 1.54119 56.047C3.11119 59.127 5.74118 61.1671 8.70118 62.1671C10.1312 62.6871 11.6512 62.9671 13.1712 62.9671C13.7912 62.9671 14.4212 62.9171 15.0312 62.8271C15.3812 62.7771 15.7312 62.747 16.0712 62.747C17.1412 62.747 18.1312 62.9871 19.0212 63.4771C24.6912 66.5571 32.1312 68.187 40.5212 68.187C41.5212 68.187 42.5512 68.157 43.5712 68.117C43.7812 68.107 44.0112 68.0971 44.2212 68.0971C47.8412 68.0971 51.4212 69.4871 54.3012 72.0071C57.1912 74.5371 60.7912 75.8771 64.7012 75.8771C72.7312 75.8771 79.5812 70.347 80.9812 62.737C81.7312 58.667 83.8812 55.1671 87.0212 52.8971C94.8712 47.2271 100.331 40.8971 103.251 34.0671C103.791 32.8071 104.721 31.787 105.871 31.177C108.681 29.837 110.671 27.6371 111.811 25.0871C112.631 23.3671 113.071 21.467 113.071 19.487C113.071 17.507 112.661 15.7971 111.941 14.1671L111.921 14.1471ZM44.5212 11.0371L47.6112 7.94706C47.9512 7.60706 48.5012 7.60706 48.8412 7.94706L51.9312 11.0371C52.2712 11.3771 52.2712 11.9271 51.9312 12.2671L48.8412 15.3571C48.6712 15.5271 48.4512 15.617 48.2312 15.617C48.0112 15.617 47.7812 15.5271 47.6112 15.3571L44.5212 12.2671C44.1812 11.9271 44.1812 11.3771 44.5212 11.0371ZM13.0612 54.7071C10.5112 54.7071 8.44119 52.6371 8.44119 50.0871C8.44119 47.5371 10.5212 45.4671 13.0612 45.4671C15.6012 45.4671 17.6812 47.5371 17.6812 50.0871C17.6812 52.6371 15.6112 54.7071 13.0612 54.7071ZM72.8312 61.1671C68.9412 61.1671 65.7812 64.3371 65.7812 68.2171C65.7812 68.6971 65.3912 69.0871 64.9112 69.0871C64.4312 69.0871 64.0412 68.6971 64.0412 68.2171C64.0412 64.3271 60.8812 61.1671 56.9912 61.1671C56.5112 61.1671 56.1212 60.777 56.1212 60.297C56.1212 59.817 56.5112 59.427 56.9912 59.427C60.8812 59.427 64.0412 56.267 64.0412 52.377C64.0412 51.897 64.4312 51.5071 64.9112 51.5071C65.3912 51.5071 65.7812 51.897 65.7812 52.377C65.7812 56.267 68.9512 59.427 72.8312 59.427C73.3112 59.427 73.7012 59.817 73.7012 60.297C73.7012 60.777 73.3112 61.1671 72.8312 61.1671ZM91.5712 36.7171C89.0212 40.0271 85.6012 43.207 81.3812 46.177C80.3312 46.917 79.1112 47.307 77.8412 47.307C76.5712 47.307 75.4412 46.9271 74.4612 46.2171C71.7512 44.2371 68.5112 43.1971 65.1012 43.1971C57.6112 43.1971 51.0412 48.0871 49.1412 55.0871C48.4912 57.4771 46.3112 59.1871 43.7112 59.3471C42.5212 59.4171 41.3312 59.4471 40.2012 59.4471C36.6512 59.4471 33.3412 59.0971 30.3712 58.4071C27.4412 57.7271 25.5712 54.8471 26.0112 51.7071C26.1012 51.0971 26.1512 50.4671 26.1512 49.8471C26.1512 49.8071 26.1512 49.7671 26.1512 49.7271C26.0812 48.0071 25.7612 46.4071 25.2012 44.9471C25.0312 44.5171 24.8312 44.097 24.6112 43.687C24.5012 43.487 24.4112 43.2871 24.3112 43.0871C20.6812 35.6071 23.1812 26.4571 30.0612 21.6571C30.2312 21.5371 30.4112 21.4171 30.5912 21.2871C34.0812 18.9071 38.6212 18.8871 42.2412 21.0771C48.1512 24.6471 56.3312 21.817 58.7212 15.297C60.1712 11.337 63.7612 8.53703 67.9712 8.23703C68.7312 8.17703 69.4912 8.13709 70.2512 8.10709C78.4812 7.80709 85.6012 13.6671 87.1412 21.7571C87.2112 22.1571 87.3112 22.547 87.4212 22.937C88.0112 25.177 89.1612 27.2371 90.8312 28.8571C93.0512 31.0071 93.3812 34.3771 91.5812 36.7071L91.5712 36.7171ZM104.421 20.307L101.031 23.6971C100.861 23.8671 100.631 23.9571 100.411 23.9571C100.191 23.9571 99.9712 23.8671 99.8012 23.6971L96.4112 20.307C96.0712 19.967 96.0712 19.4171 96.4112 19.0771L99.8012 15.687C100.141 15.347 100.691 15.347 101.031 15.687L104.421 19.0771C104.761 19.4171 104.761 19.967 104.421 20.307Z" fill="white"/>
<path d="M132.411 25.787C132.411 16.977 138.071 10.687 150.031 10.687C159.721 10.687 165.261 14.837 167.021 21.127H172.051V11.317H184.631V64.537H172.051V53.527H167.331C165.951 60.447 160.351 65.1671 150.031 65.1671C138.081 65.1671 132.411 58.877 132.411 50.067V25.787ZM133.731 37.997C141.341 38.307 150.021 44.7271 150.021 63.1671C150.021 44.7371 158.641 38.257 166.251 37.937C158.641 37.617 150.021 31.207 150.021 12.707C150.021 31.207 141.341 37.687 133.731 37.997ZM167.641 43.467H172.041V31.197H167.641V43.467Z" fill="white"/>
<path d="M197.281 21.0669H190.611V11.3169H227.101V21.0669H220.431L227.731 64.5369H214.831L208.851 22.2569L202.871 64.5369H189.971L197.271 21.0669H197.281ZM230.561 11.3169H243.141V64.5369H230.561V11.3169Z" fill="white"/>
<path d="M249.431 25.787C249.431 16.977 254.781 10.687 266.731 10.687C278.681 10.687 284.031 16.977 284.031 25.787V50.067C284.031 58.877 278.681 65.1671 266.731 65.1671C254.781 65.1671 249.431 58.877 249.431 50.067V25.787ZM250.751 37.997C258.361 38.307 266.731 44.7271 266.731 63.1671C266.731 44.7371 275.101 38.257 282.651 37.937C275.101 37.617 266.731 31.207 266.731 12.707C266.731 31.207 258.361 37.687 250.751 37.997ZM287.181 11.327H299.761V30.137H305.421V40.837H299.761V64.557H287.181V11.337V11.327Z" fill="white"/>
<path d="M314.301 21.0669H307.631V11.3169H344.121V21.0669H337.451L344.751 64.5369H331.851L325.871 22.2569L319.891 64.5369H306.991L314.291 21.0669H314.301ZM347.581 11.3169H360.161V64.5369H347.581V11.3169Z" fill="white"/>
</svg>
