<svg width="161" height="45" viewBox="0 0 161 45" fill="none" xmlns="http://www.w3.org/2000/svg">
<path d="M100.382 12.6428C99.1447 13.2053 97.8107 13.5749 96.4286 13.7517C97.8429 12.8999 98.9357 11.5499 99.45 9.92668C98.1161 10.7303 96.6375 11.2928 95.0786 11.6142C93.809 10.232 92.025 9.42847 90 9.42847C86.2232 9.42847 83.1375 12.5142 83.1375 16.3231C83.1375 16.8695 83.2018 17.3999 83.3143 17.8981C77.5929 17.6088 72.4982 14.8606 69.1072 10.6981C68.5125 11.7106 68.175 12.8999 68.175 14.1535C68.175 16.5481 69.3804 18.6695 71.2447 19.8749C70.1036 19.8749 69.0429 19.5535 68.1107 19.0713V19.1195C68.1107 22.4624 70.4893 25.2588 73.6393 25.8856C72.628 26.1624 71.5663 26.2009 70.5375 25.9981C70.974 27.3682 71.8289 28.567 72.982 29.426C74.1351 30.2851 75.5284 30.7612 76.9661 30.7874C74.5291 32.7167 71.5082 33.7595 68.4 33.7445C67.8536 33.7445 67.3072 33.7124 66.7607 33.6481C69.8143 35.6088 73.4465 36.7499 77.3357 36.7499C90 36.7499 96.959 26.2392 96.959 17.1267C96.959 16.8213 96.959 16.532 96.9429 16.2267C98.2929 15.2624 99.45 14.041 100.382 12.6428Z" fill="white"/>
<g clip-path="url(#clip0_299_9273)">
<path d="M143.839 6C139.26 6 138.684 6.02109 136.885 6.10125C135.085 6.18563 133.86 6.46828 132.786 6.88594C131.66 7.30954 130.64 7.97401 129.797 8.83289C128.939 9.676 128.275 10.696 127.85 11.8219C127.433 12.8934 127.148 14.1211 127.066 15.9141C126.985 17.7176 126.964 18.2913 126.964 22.8771C126.964 27.4587 126.985 28.0324 127.066 29.8317C127.15 31.6289 127.433 32.8545 127.85 33.9281C128.283 35.0377 128.859 35.9784 129.797 36.9171C130.734 37.8558 131.675 38.4338 132.784 38.8641C133.86 39.2817 135.083 39.5665 136.881 39.6488C138.682 39.7289 139.256 39.75 143.839 39.75C148.423 39.75 148.995 39.7289 150.796 39.6488C152.591 39.5644 153.821 39.2817 154.895 38.8641C156.02 38.4403 157.039 37.7758 157.881 36.9171C158.82 35.9784 159.396 35.0377 159.828 33.9281C160.244 32.8545 160.529 31.6289 160.613 29.8317C160.693 28.0324 160.714 27.4587 160.714 22.875C160.714 18.2913 160.693 17.7176 160.613 15.9162C160.529 14.1211 160.244 12.8934 159.828 11.8219C159.404 10.6959 158.74 9.67596 157.881 8.83289C157.039 7.97369 156.019 7.30917 154.892 6.88594C153.817 6.46828 152.589 6.18352 150.794 6.10125C148.993 6.02109 148.421 6 143.835 6H143.841H143.839ZM142.327 9.04172H143.841C148.347 9.04172 148.881 9.05648 150.659 9.13875C152.304 9.21258 153.199 9.48891 153.793 9.71883C154.58 10.0247 155.143 10.3917 155.734 10.9823C156.325 11.573 156.69 12.1341 156.996 12.923C157.228 13.5157 157.502 14.4101 157.576 16.0554C157.658 17.8336 157.675 18.3673 157.675 22.8708C157.675 27.3743 157.658 27.9101 157.576 29.6883C157.502 31.3336 157.225 32.2259 156.996 32.8207C156.725 33.5534 156.293 34.2159 155.732 34.7592C155.141 35.3498 154.58 35.7148 153.791 36.0206C153.201 36.2527 152.306 36.5269 150.659 36.6028C148.881 36.683 148.347 36.702 143.841 36.702C139.336 36.702 138.8 36.683 137.022 36.6028C135.377 36.5269 134.484 36.2527 133.889 36.0206C133.156 35.7505 132.493 35.3194 131.949 34.7592C131.387 34.2151 130.955 33.5519 130.683 32.8186C130.453 32.2259 130.177 31.3315 130.103 29.6862C130.023 27.908 130.006 27.3743 130.006 22.8666C130.006 18.3609 130.023 17.8294 130.103 16.0512C130.179 14.4059 130.453 13.5115 130.685 12.9166C130.991 12.1298 131.358 11.5666 131.949 10.976C132.539 10.3854 133.101 10.0205 133.889 9.71461C134.484 9.48258 135.377 9.20836 137.022 9.13242C138.579 9.0607 139.182 9.03961 142.327 9.0375V9.04172ZM152.848 11.843C152.583 11.843 152.319 11.8953 152.074 11.9971C151.828 12.0989 151.605 12.248 151.417 12.4361C151.229 12.6241 151.079 12.8474 150.978 13.093C150.876 13.3387 150.823 13.602 150.823 13.868C150.823 14.1339 150.876 14.3972 150.978 14.6429C151.079 14.8886 151.229 15.1118 151.417 15.2999C151.605 15.4879 151.828 15.6371 152.074 15.7388C152.319 15.8406 152.583 15.893 152.848 15.893C153.386 15.893 153.901 15.6796 154.28 15.2999C154.66 14.9201 154.873 14.405 154.873 13.868C154.873 13.3309 154.66 12.8158 154.28 12.4361C153.901 12.0563 153.386 11.843 152.848 11.843ZM143.841 14.2097C142.692 14.1918 141.55 14.4027 140.483 14.8301C139.416 15.2576 138.445 15.8931 137.625 16.6996C136.806 17.5062 136.156 18.4676 135.712 19.528C135.268 20.5883 135.039 21.7265 135.039 22.8761C135.039 24.0257 135.268 25.1638 135.712 26.2241C136.156 27.2845 136.806 28.2459 137.625 29.0525C138.445 29.859 139.416 30.4945 140.483 30.922C141.55 31.3494 142.692 31.5604 143.841 31.5424C146.117 31.5069 148.286 30.5783 149.883 28.9569C151.479 27.3355 152.374 25.1514 152.374 22.8761C152.374 20.6007 151.479 18.4167 149.883 16.7953C148.286 15.1739 146.117 14.2452 143.841 14.2097ZM143.841 17.2493C145.333 17.2493 146.764 17.842 147.819 18.897C148.874 19.9521 149.467 21.383 149.467 22.875C149.467 24.367 148.874 25.7979 147.819 26.853C146.764 27.908 145.333 28.5007 143.841 28.5007C142.349 28.5007 140.919 27.908 139.863 26.853C138.808 25.7979 138.216 24.367 138.216 22.875C138.216 21.383 138.808 19.9521 139.863 18.897C140.919 17.842 142.349 17.2493 143.841 17.2493Z" fill="white"/>
</g>
<path d="M18.75 28.125L28.4812 22.5L18.75 16.875V28.125ZM40.425 13.4438C40.6688 14.325 40.8375 15.5062 40.95 17.0062C41.0812 18.5063 41.1375 19.8 41.1375 20.925L41.25 22.5C41.25 26.6063 40.95 29.625 40.425 31.5563C39.9562 33.2438 38.8688 34.3313 37.1813 34.8C36.3 35.0438 34.6875 35.2125 32.2125 35.325C29.775 35.4563 27.5438 35.5125 25.4813 35.5125L22.5 35.625C14.6438 35.625 9.75 35.325 7.81875 34.8C6.13125 34.3313 5.04375 33.2438 4.575 31.5563C4.33125 30.675 4.1625 29.4938 4.05 27.9938C3.91875 26.4938 3.8625 25.2 3.8625 24.075L3.75 22.5C3.75 18.3938 4.05 15.375 4.575 13.4438C5.04375 11.7563 6.13125 10.6688 7.81875 10.2C8.7 9.95625 10.3125 9.7875 12.7875 9.675C15.225 9.54375 17.4562 9.4875 19.5187 9.4875L22.5 9.375C30.3563 9.375 35.25 9.675 37.1813 10.2C38.8688 10.6688 39.9562 11.7563 40.425 13.4438Z" fill="white"/>
<defs>
<clipPath id="clip0_299_9273">
<rect width="33.75" height="33.75" fill="white" transform="translate(126.964 6)"/>
</clipPath>
</defs>
</svg>
