<svg width="23" height="28" viewBox="0 0 23 28" fill="none" xmlns="http://www.w3.org/2000/svg">
<path fill-rule="evenodd" clip-rule="evenodd" d="M11.0459 -4.82833e-07C11.8744 -5.19045e-07 12.5459 0.671572 12.5459 1.5L12.5459 22.8787L19.5312 15.8934C20.117 15.3076 21.0668 15.3076 21.6525 15.8934C22.2383 16.4792 22.2383 17.4289 21.6525 18.0147L12.1066 27.5607C11.5208 28.1464 10.5711 28.1464 9.98528 27.5607L0.439341 18.0147C-0.146446 17.4289 -0.146446 16.4792 0.439341 15.8934C1.02513 15.3076 1.97487 15.3076 2.56066 15.8934L9.54594 22.8787L9.54594 1.5C9.54594 0.671572 10.2175 -4.46622e-07 11.0459 -4.82833e-07Z" fill="#373737"/>
</svg>
