<svg width="101" height="58" viewBox="0 0 101 58" fill="none" xmlns="http://www.w3.org/2000/svg">
<rect y="6" width="101" height="41.4273" rx="10" fill="#FAFAFA"/>
<path d="M49.8607 57.7654L43.2175 41.873L56.5039 41.873L49.8607 57.7654Z" fill="#FAFAFA"/>
<path d="M23.7598 18.3086L28.418 30.9355H28.7695V18.7773C28.7695 18.084 28.8867 17.5322 29.1211 17.1221C29.3652 16.7021 29.9023 16.4922 30.7324 16.4922C31.6602 16.4922 32.251 16.6924 32.5049 17.0928C32.7686 17.4932 32.9004 18.0547 32.9004 18.7773V33.6309C32.9004 34.2656 32.8613 34.8418 32.7832 35.3594C32.7148 35.8672 32.5293 36.2676 32.2266 36.5605C31.9238 36.8535 31.4258 37 30.7324 37H28.7988C28.2422 37 27.7881 36.8682 27.4365 36.6045C27.085 36.3408 26.8066 36.0186 26.6016 35.6377C26.3965 35.2568 26.2305 34.8906 26.1035 34.5391L21.6797 22.5566H21.3281V34.7148C21.3281 35.4082 21.2109 35.9648 20.9766 36.3848C20.7422 36.7949 20.2051 37 19.3652 37C18.4277 37 17.8271 36.7998 17.5635 36.3994C17.2998 35.999 17.168 35.4375 17.168 34.7148V19.8613C17.168 19.2266 17.2021 18.6553 17.2705 18.1475C17.3486 17.6396 17.5439 17.2393 17.8564 16.9463C18.1689 16.6436 18.6719 16.4922 19.3652 16.4922H21.2988C21.7871 16.4922 22.1826 16.5898 22.4854 16.7852C22.7979 16.9707 23.0518 17.1758 23.2471 17.4004C23.4424 17.6348 23.6133 17.9375 23.7598 18.3086ZM39.1699 16.4922H44.9121C45.498 16.4922 46.0449 16.5361 46.5527 16.624C47.0703 16.7021 47.4854 16.8877 47.7979 17.1807C48.1201 17.4736 48.2812 17.9375 48.2812 18.5723C48.2812 19.207 48.1201 19.6709 47.7979 19.9639C47.4854 20.2568 47.0703 20.4473 46.5527 20.5352C46.0449 20.6133 45.498 20.6523 44.9121 20.6523H41.4258V24.6367H43.2715C43.8477 24.6367 44.3848 24.6758 44.8828 24.7539C45.3809 24.8223 45.7812 24.998 46.084 25.2812C46.3965 25.5547 46.5527 26.0039 46.5527 26.6289C46.5527 27.2539 46.3965 27.708 46.084 27.9912C45.7812 28.2646 45.3809 28.4404 44.8828 28.5186C44.3848 28.5869 43.8477 28.6211 43.2715 28.6211H41.4258V32.8398H44.9121C45.498 32.8398 46.0449 32.8789 46.5527 32.957C47.0703 33.0352 47.4854 33.2207 47.7979 33.5137C48.1201 33.7969 48.2812 34.2559 48.2812 34.8906C48.2812 35.5352 48.1201 36.0088 47.7979 36.3115C47.4756 36.6045 47.0557 36.7949 46.5381 36.8828C46.0303 36.9609 45.4883 37 44.9121 37H39.1699C38.4766 37 37.9736 36.8486 37.6611 36.5459C37.3584 36.2432 37.168 35.8379 37.0898 35.3301C37.0117 34.8223 36.9727 34.2559 36.9727 33.6309V19.8613C36.9727 19.2363 37.0117 18.6699 37.0898 18.1621C37.168 17.6543 37.3584 17.249 37.6611 16.9463C37.9736 16.6436 38.4766 16.4922 39.1699 16.4922ZM61.084 16.5801C61.6309 16.5801 62.1045 16.7656 62.5049 17.1367C62.9053 17.5078 63.1641 17.9668 63.2812 18.5137L65.8008 30.2031H66.2988C66.709 28.2988 67.1289 26.3555 67.5586 24.373C67.9883 22.3809 68.418 20.4277 68.8477 18.5137C68.9355 18.1426 69.0674 17.8057 69.2432 17.5029C69.3994 17.249 69.6143 17.0195 69.8877 16.8145C70.1709 16.5996 70.5371 16.4922 70.9863 16.4922C71.6211 16.4922 72.1191 16.6973 72.4805 17.1074C72.8516 17.5078 73.0371 17.9473 73.0371 18.4258C73.0371 18.6895 73.0176 18.8945 72.9785 19.041C72.9688 19.0898 72.959 19.1387 72.9492 19.1875C72.9395 19.2266 72.9297 19.2656 72.9199 19.3047L68.9062 35.2422C68.7598 35.584 68.5645 35.877 68.3203 36.1211C68.1152 36.3457 67.8467 36.5508 67.5146 36.7363C67.1924 36.9121 66.7871 37 66.2988 37H65.8008C65.3125 37 64.9121 36.9121 64.5996 36.7363C64.2871 36.5508 64.0381 36.3457 63.8525 36.1211C63.6377 35.8672 63.4766 35.5742 63.3691 35.2422L61.3184 26.6582H60.8203C60.6641 27.3516 60.5029 28.0547 60.3369 28.7676C60.1709 29.4805 60 30.208 59.8242 30.9502C59.6387 31.6924 59.4629 32.4199 59.2969 33.1328C59.1309 33.8457 58.9648 34.5488 58.7988 35.2422C58.6621 35.6035 58.4912 35.8965 58.2861 36.1211C58.0908 36.3457 57.8369 36.5508 57.5244 36.7363C57.2217 36.9121 56.8262 37 56.3379 37H55.8398C55.3516 37 54.9365 36.9121 54.5947 36.7363C54.2627 36.5508 53.9893 36.3457 53.7744 36.1211C53.5205 35.8672 53.3203 35.5742 53.1738 35.2422L49.2188 19.3047C49.209 19.2656 49.1992 19.2266 49.1895 19.1875C49.1797 19.1387 49.1699 19.0898 49.1602 19.041C49.1211 18.8945 49.1016 18.6895 49.1016 18.4258C49.1016 17.9473 49.2822 17.5078 49.6436 17.1074C50.0146 16.6973 50.5176 16.4922 51.1523 16.4922C51.6016 16.4922 51.9629 16.5996 52.2363 16.8145C52.5195 17.0195 52.7393 17.249 52.8955 17.5029C53.0713 17.8057 53.2031 18.1426 53.291 18.5137L55.8398 30.2031H56.3379C56.5234 29.3047 56.7236 28.3574 56.9385 27.3613C57.1631 26.3652 57.3828 25.3643 57.5977 24.3584C57.8223 23.3428 58.042 22.3418 58.2568 21.3555C58.4717 20.3691 58.6816 19.4219 58.8867 18.5137C59.0234 17.957 59.2871 17.498 59.6777 17.1367C60.0684 16.7656 60.5371 16.5801 61.084 16.5801ZM87.9785 22.2344C87.9785 22.7324 87.8906 23.1963 87.7148 23.626C87.5293 24.0459 87.2949 24.4316 87.0117 24.7832C86.7285 25.1348 86.416 25.457 86.0742 25.75C85.8984 25.8965 85.7275 26.0381 85.5615 26.1748C85.3955 26.3018 85.2295 26.4287 85.0635 26.5557C84.7314 26.7998 84.4238 27.0293 84.1406 27.2441C83.8672 27.4492 83.6621 27.6445 83.5254 27.8301C83.4668 27.9082 83.3984 28.0303 83.3203 28.1963C83.2422 28.3525 83.2031 28.5332 83.2031 28.7383C83.2031 29.2656 83.0371 29.7002 82.7051 30.042C82.3828 30.3838 81.875 30.5547 81.1816 30.5547C80.4395 30.5547 79.9023 30.3496 79.5703 29.9395C79.2383 29.5293 79.0723 29.0898 79.0723 28.6211C79.0723 27.9766 79.1846 27.4199 79.4092 26.9512C79.6338 26.502 79.917 26.1162 80.2588 25.7939C80.6006 25.4619 80.9668 25.1738 81.3574 24.9297C81.7871 24.6562 82.1533 24.4023 82.4561 24.168C82.7979 23.9043 83.0811 23.6113 83.3057 23.2891C83.5303 22.957 83.6426 22.5469 83.6426 22.0586C83.6426 21.4531 83.5254 20.9941 83.291 20.6816C83.0566 20.3691 82.7588 20.1592 82.3975 20.0518C82.0459 19.9443 81.6797 19.8906 81.2988 19.8906C80.4102 19.8906 79.8193 20.1055 79.5264 20.5352C79.2432 20.9648 79.1016 21.4824 79.1016 22.0879C79.1016 22.791 78.8623 23.3184 78.3838 23.6699C77.915 24.0215 77.4219 24.1973 76.9043 24.1973C76.2402 24.1973 75.7031 24.0166 75.293 23.6553C74.8828 23.2842 74.6777 22.8105 74.6777 22.2344C74.6777 21.9707 74.707 21.6436 74.7656 21.2529C74.8242 20.8525 74.9365 20.4277 75.1025 19.9785C75.2686 19.5293 75.5029 19.0801 75.8057 18.6309C76.0986 18.2012 76.4941 17.7959 76.9922 17.415C77.4805 17.0537 78.0762 16.7607 78.7793 16.5361C79.4824 16.3115 80.3223 16.1992 81.2988 16.1992C82.4023 16.1992 83.3691 16.3506 84.1992 16.6533C85.0391 16.9463 85.7373 17.3564 86.2939 17.8838C87.417 18.958 87.9785 20.4082 87.9785 22.2344ZM83.7012 34.5684C83.7012 35.3984 83.4912 36.0137 83.0713 36.4141C82.6514 36.8047 82.0605 37 81.2988 37C79.6777 37 78.8672 36.1895 78.8672 34.5684C78.8672 33.7285 79.0771 33.1182 79.4971 32.7373C79.917 32.3564 80.5176 32.166 81.2988 32.166C82.1094 32.166 82.71 32.3564 83.1006 32.7373C83.501 33.1182 83.7012 33.7285 83.7012 34.5684Z" fill="#0077E4"/>
</svg>
