<svg width="350" height="166" viewBox="0 0 350 166" fill="none" xmlns="http://www.w3.org/2000/svg">
<path d="M41.951 28.9524C43.8262 23.702 47.0515 19.7867 51.6119 17.2214C56.1722 14.6562 61.0177 13.3811 66.1481 13.3811C70.9035 13.3811 75.4939 14.7012 79.9343 17.3264C84.3747 19.9517 87.4649 23.837 89.2201 28.9674L130.924 144.957C134.464 154.813 127.158 165.209 116.687 165.209H108.032C101.416 165.209 95.5806 160.919 93.6005 154.618L92.9404 152.533C90.9602 146.233 85.1097 141.942 78.5092 141.942H52.5869C45.9414 141.942 40.0609 146.278 38.1257 152.638L37.5556 154.513C35.6055 160.874 29.74 165.209 23.0944 165.209H15.1437C4.70282 165.209 -2.60281 154.873 0.877493 145.032L41.951 28.9524Z" fill="#25C247"/>
<path d="M233.367 142.317L217.991 116.5C214.421 110.514 215.576 102.969 220.511 98.0334C223.242 95.3032 225.657 92.2579 227.757 88.9126C231.942 82.2221 234.042 74.3764 234.042 65.3606V63.1104C234.042 54.7247 232.632 47.4791 229.827 41.3436C227.007 35.223 223.107 30.1226 218.096 26.0422C213.086 21.9769 207.145 18.9766 200.275 17.0415C196.659 16.0214 192.879 15.2863 188.934 14.7913C189.714 13.3661 190.149 11.731 190.149 10.0059C190.149 4.48539 185.678 0 180.143 0C174.622 0 170.137 4.47038 170.137 10.0059C170.137 11.476 170.467 12.8711 171.037 14.1312H163.851C164.421 12.8711 164.752 11.476 164.752 10.0059C164.752 4.48539 160.281 0 154.746 0C149.21 0 144.74 4.47038 144.74 10.0059C144.74 11.476 145.07 12.8711 145.64 14.1312H143.21C137.584 14.1312 132.889 14.6713 129.138 15.7213C125.388 16.7864 122.388 18.5116 120.138 20.8818C117.887 23.252 116.297 26.3273 115.352 30.0776C114.407 33.8279 113.942 38.4033 113.942 43.7738V150.058C113.942 158.414 120.723 165.194 129.078 165.194H137.284C145.64 165.194 152.42 158.414 152.42 150.058V129.836C152.42 121.48 159.201 114.7 167.557 114.7C173.047 114.7 178.103 117.67 180.773 122.456L200.26 157.409C202.93 162.194 207.985 165.164 213.476 165.164H220.376C232.092 165.194 239.368 152.398 233.367 142.317Z" fill="#5A9E00"/>
<path d="M347.842 142.317L332.466 116.5C328.895 110.514 330.05 102.969 334.986 98.0334C337.716 95.3032 340.131 92.2579 342.232 88.9126C346.417 82.2221 348.517 74.3764 348.517 65.3606V63.1104C348.517 54.7247 347.107 47.4791 344.302 41.3436C341.481 35.223 337.581 30.1226 332.571 26.0422C327.56 21.9769 321.62 18.9766 314.749 17.0415C311.719 16.1864 308.554 15.5263 305.268 15.0463C306.138 13.5612 306.648 11.851 306.648 10.0059C306.648 4.48539 302.178 0 296.643 0C291.107 0 286.637 4.47038 286.637 10.0059C286.637 11.476 286.967 12.8711 287.537 14.1312H280.351C280.921 12.8711 281.251 11.476 281.251 10.0059C281.251 4.48539 276.781 0 271.245 0C265.71 0 261.24 4.47038 261.24 10.0059C261.24 11.476 261.57 12.8711 262.14 14.1312H257.684C252.059 14.1312 247.363 14.6713 243.613 15.7213C239.863 16.7864 236.862 18.5116 234.612 20.8818C232.362 23.252 230.772 26.3273 229.827 30.0776C228.882 33.8279 228.417 38.4033 228.417 43.7738V150.058C228.417 158.414 235.197 165.194 243.553 165.194H251.759C260.114 165.194 266.895 158.414 266.895 150.058V129.836C266.895 121.48 273.676 114.7 282.031 114.7C287.522 114.7 292.577 117.67 295.247 122.456L314.734 157.409C317.404 162.194 322.46 165.164 327.95 165.164H334.851C346.582 165.194 353.858 152.398 347.842 142.317Z" fill="#61C200"/>
<path d="M144.74 56.6599C151.857 56.6599 157.626 50.454 157.626 42.7987C157.626 35.1434 151.857 28.9375 144.74 28.9375C137.623 28.9375 131.854 35.1434 131.854 42.7987C131.854 50.454 137.623 56.6599 144.74 56.6599Z" fill="white"/>
<path d="M176.078 56.6599C183.194 56.6599 188.964 50.454 188.964 42.7987C188.964 35.1434 183.194 28.9375 176.078 28.9375C168.961 28.9375 163.191 35.1434 163.191 42.7987C163.191 50.454 168.961 56.6599 176.078 56.6599Z" fill="white"/>
<path d="M50.2469 127.991C57.3637 127.991 63.1331 121.785 63.1331 114.13C63.1331 106.475 57.3637 100.269 50.2469 100.269C43.1301 100.269 37.3608 106.475 37.3608 114.13C37.3608 121.785 43.1301 127.991 50.2469 127.991Z" fill="white"/>
<path d="M81.5843 127.991C88.7011 127.991 94.4705 121.785 94.4705 114.13C94.4705 106.475 88.7011 100.269 81.5843 100.269C74.4675 100.269 68.6982 106.475 68.6982 114.13C68.6982 121.785 74.4675 127.991 81.5843 127.991Z" fill="white"/>
<path d="M293.747 75.4265C300.864 75.4265 306.634 69.2206 306.634 61.5653C306.634 53.91 300.864 47.7041 293.747 47.7041C286.631 47.7041 280.861 53.91 280.861 61.5653C280.861 69.2206 286.631 75.4265 293.747 75.4265Z" fill="white"/>
<path d="M325.085 75.4265C332.202 75.4265 337.971 69.2206 337.971 61.5653C337.971 53.91 332.202 47.7041 325.085 47.7041C317.969 47.7041 312.199 53.91 312.199 61.5653C312.199 69.2206 317.969 75.4265 325.085 75.4265Z" fill="white"/>
<path d="M45.7162 119.59C45.5362 119.59 45.3562 119.56 45.1912 119.5C44.4111 119.2 44.0211 118.345 44.3211 117.565C45.1912 115.255 47.4414 113.559 49.9016 113.364C52.3618 113.154 54.852 114.459 56.0971 116.605C56.5172 117.325 56.2622 118.24 55.5571 118.66C54.837 119.08 53.922 118.825 53.5019 118.12C52.8419 116.98 51.4767 116.26 50.1566 116.365C48.8515 116.47 47.6064 117.4 47.1414 118.645C46.9014 119.215 46.3313 119.59 45.7162 119.59Z" fill="#25C247"/>
<path d="M85.7099 120.055C85.0349 120.055 84.4348 119.605 84.2548 118.915C83.9398 117.64 82.8147 116.575 81.5096 116.305C80.2195 116.05 78.7643 116.605 77.9843 117.655C77.4892 118.315 76.5442 118.465 75.8841 117.955C75.224 117.46 75.089 116.515 75.5841 115.855C77.0542 113.875 79.6794 112.87 82.1096 113.35C84.5398 113.83 86.565 115.765 87.1651 118.165C87.3601 118.975 86.88 119.785 86.07 119.98C85.95 120.04 85.8299 120.055 85.7099 120.055Z" fill="#25C247"/>
<path d="M146.135 42.7986C148.935 42.7986 151.205 40.5285 151.205 37.7281C151.205 34.9278 148.935 32.6577 146.135 32.6577C143.335 32.6577 141.064 34.9278 141.064 37.7281C141.064 40.5285 143.335 42.7986 146.135 42.7986Z" fill="#5A9E00"/>
<path d="M301.578 66.7859C304.379 66.7859 306.649 64.5158 306.649 61.7155C306.649 58.9151 304.379 56.645 301.578 56.645C298.778 56.645 296.508 58.9151 296.508 61.7155C296.508 64.5158 298.778 66.7859 301.578 66.7859Z" fill="#61C200"/>
<path d="M332.916 66.7859C335.716 66.7859 337.986 64.5158 337.986 61.7155C337.986 58.9151 335.716 56.645 332.916 56.645C330.115 56.645 327.845 58.9151 327.845 61.7155C327.845 64.5158 330.115 66.7859 332.916 66.7859Z" fill="#61C200"/>
<path d="M172.747 42.7986C175.548 42.7986 177.818 40.5285 177.818 37.7281C177.818 34.9278 175.548 32.6577 172.747 32.6577C169.947 32.6577 167.677 34.9278 167.677 37.7281C167.677 40.5285 169.947 42.7986 172.747 42.7986Z" fill="#5A9E00"/>
</svg>
