<?xml version="1.0" encoding="UTF-8"?>
<svg id="_레이어_2" data-name="레이어 2" xmlns="http://www.w3.org/2000/svg" viewBox="0 0 14.18 16.05">
  <defs>
    <style>
      .cls-1 {
        fill: #000;
        stroke-width: 0px;
      }
    </style>
  </defs>
  <g id="_레이어_1-2" data-name="레이어 1">
    <path class="cls-1" d="M3.6,6.75c.64-.06,1.26-.3,1.79-.73l.81-.66c.45-.37.52-1.03.15-1.49L3.51.39c-.37-.45-1.03-.52-1.49-.15l-.81.66C.12,1.79-.25,3.24.17,4.51c.44,5.16,4.1,9.64,9.07,11.1,1.15.67,2.65.6,3.74-.3l.81-.66c.45-.37.52-1.03.15-1.49l-2.84-3.48c-.37-.45-1.03-.52-1.49-.15l-.81.66c-.53.43-.89,1-1.07,1.61-1.91-1.16-3.38-2.96-4.14-5.06Z"/>
  </g>
</svg>