<svg width="251" height="240" viewBox="0 0 251 240" fill="none" xmlns="http://www.w3.org/2000/svg">
<path d="M213.642 15.1242C208.635 16.5205 203.262 16.0968 198.447 14.1131C180.132 6.58294 159.409 5.88962 138.359 8.87474C132.264 9.74138 126.159 8.05624 121.152 4.4741C107.526 -5.26124 87.3427 1.65268 82.682 17.8494C80.968 23.8389 77.1933 29.0002 71.8297 32.1587C53.5145 42.9532 37.7704 56.4152 28.1507 73.7481C25.724 78.1199 21.9975 81.5865 17.4909 83.7627C21.179 82.1546 25.2522 81.2976 29.4506 81.2976C36.7497 81.3072 43.6348 83.859 48.8443 88.51C51.0109 90.4455 52.8212 92.6699 54.2656 95.1447C46.2443 78.6302 51.7812 58.4181 66.9572 47.8161C67.3424 47.5465 67.7372 47.2769 68.1224 47.0072C75.8259 41.7496 85.8597 41.7014 93.8425 46.5354C106.89 54.4219 124.965 48.1724 130.222 33.7668C133.419 25.0136 141.354 18.8508 150.646 18.1671C152.332 18.0419 154.007 17.9456 155.673 17.8879C173.853 17.2234 189.578 30.1654 192.977 48.0376C193.141 48.9139 193.353 49.7805 193.594 50.6375C192.034 44.6865 192.294 38.1867 194.624 32.1876C198.88 21.21 208.779 14.4502 221.124 14.0843C218.534 14.1035 216.021 14.4598 213.632 15.1242H213.642ZM115.287 27.0743L108.46 33.892C108.084 34.2675 107.593 34.4601 107.102 34.4601C106.611 34.4601 106.11 34.2675 105.735 33.892L98.9172 27.0743C98.1661 26.3232 98.1661 25.1003 98.9172 24.3492L105.735 17.5316C106.486 16.7805 107.709 16.7805 108.46 17.5316L115.287 24.3492C116.038 25.1003 116.038 26.3232 115.287 27.0743Z" fill="#F28F4D"/>
<path d="M247.75 31.2245C245.169 25.1098 240.451 19.8425 233.614 16.8092C229.887 15.0567 225.746 14.0745 221.365 14.0745C221.288 14.0745 221.211 14.0841 221.134 14.0841C208.789 14.45 198.89 21.2099 194.634 32.1874C192.303 38.1865 192.044 44.6864 193.603 50.6374C194.903 55.5773 197.446 60.132 201.143 63.7045C206.054 68.4421 206.767 75.8953 202.809 81.0471C197.186 88.3558 189.617 95.3852 180.315 101.943C177.994 103.58 175.298 104.437 172.496 104.437C169.694 104.437 167.19 103.609 165.033 102.039C159.043 97.6771 151.898 95.3756 144.368 95.3756C127.825 95.3756 113.333 106.17 109.125 121.635C107.69 126.922 102.875 130.687 97.1456 131.033C94.5071 131.187 91.8976 131.264 89.3843 131.264C81.5363 131.264 74.2276 130.494 67.67 128.973C61.199 127.47 57.068 121.105 58.0502 114.172C58.2428 112.824 58.3487 111.438 58.3487 110.06C58.3487 109.974 58.3487 109.887 58.3487 109.8C58.185 106.006 57.482 102.473 56.2495 99.2563C55.8643 98.303 55.431 97.3689 54.9495 96.4638C54.7088 96.0304 54.4969 95.5875 54.2851 95.1445C52.8407 92.6698 51.0303 90.4454 48.8637 88.5099C43.6542 83.8589 36.7692 81.3071 29.4701 81.2974C25.2716 81.2974 21.1984 82.1544 17.5103 83.7625C14.7948 84.947 12.2815 86.5358 10.0764 88.5099C6.74463 91.4757 4.25062 95.1542 2.65213 99.3718C1.36179 102.588 0.639585 106.084 0.601067 109.743C0.601067 109.82 0.591438 109.906 0.591438 109.983V110.089C0.524032 114.894 1.70845 119.545 3.99062 123.715C7.46684 130.523 13.2541 135.03 19.7925 137.225C22.9606 138.381 26.302 138.997 29.6626 138.997C31.0397 138.997 32.4167 138.891 33.7648 138.689C34.5351 138.573 35.3055 138.515 36.0662 138.515C38.4254 138.515 40.6113 139.055 42.5853 140.124C55.1132 146.922 71.5314 150.514 90.068 150.514C92.2827 150.514 94.5457 150.456 96.8086 150.36C97.2804 150.331 97.7715 150.321 98.2434 150.321C106.245 150.321 114.151 153.383 120.507 158.949C126.891 164.534 134.835 167.49 143.473 167.49C161.21 167.49 176.328 155.29 179.41 138.467C181.056 129.483 185.804 121.76 192.756 116.734C210.099 104.215 222.145 90.2335 228.587 75.1635C229.772 72.3806 231.823 70.1273 234.365 68.7792C240.576 65.8133 244.957 60.9601 247.49 55.3365C249.29 51.5425 250.273 47.3441 250.273 42.9627C250.273 38.5813 249.377 34.8162 247.769 31.2245H247.75ZM232.304 64.4074C229.203 65.9963 226.7 68.4999 225.005 71.5236C224.687 72.0917 224.389 72.6695 224.138 73.2761C217.475 88.8565 204.725 102.145 189.925 112.834C181.75 118.737 176.473 127.682 174.662 137.601C171.822 153.075 157.724 162.676 143.453 162.676C136.463 162.676 129.423 160.374 123.655 155.319C116.559 149.117 107.603 145.506 98.2241 145.506C97.6752 145.506 97.1167 145.526 96.5678 145.545C94.4012 145.641 92.225 145.699 90.0487 145.699C74.0735 145.699 57.8768 142.955 44.8579 135.896C44.4534 135.675 44.0394 135.473 43.6157 135.29C41.2276 134.221 38.6565 133.701 36.0469 133.701C35.0455 133.701 34.0344 133.778 33.0329 133.932C31.9063 134.096 30.77 134.182 29.6434 134.182C16.9807 134.182 5.15578 123.725 5.38689 110.06C6.0128 94.0949 17.7318 86.1121 29.4604 86.1121C41.1794 86.1218 52.8984 94.0949 53.534 110.06C53.534 111.226 53.4473 112.372 53.2836 113.489C52.7636 117.177 53.351 120.807 54.8147 123.975C57.0006 128.703 61.1508 132.41 66.5818 133.662C73.8809 135.357 81.5652 136.079 89.3843 136.079C92.0516 136.079 94.7382 135.993 97.4345 135.838C105.061 135.386 111.763 130.273 113.766 122.906C117.618 108.78 130.877 100.19 144.368 100.19C150.56 100.19 156.809 102.001 162.202 105.929C165.264 108.163 168.875 109.252 172.496 109.252C176.116 109.252 179.92 108.115 183.088 105.881C192.092 99.5356 200.257 92.2653 206.622 83.984C209.925 79.6893 210.859 74.3835 209.723 69.4532C208.933 66.0541 207.171 62.8282 204.494 60.2379C190.657 46.8915 197.513 19.5343 221.365 18.8892C234.663 18.8892 245.439 29.6645 245.439 42.9627C245.439 52.3225 240.104 60.4209 232.304 64.4074Z" fill="#FFBA53"/>
<path d="M163.358 133.104C163.358 134.173 162.501 135.03 161.432 135.03C152.852 135.03 145.861 142.021 145.861 150.601C145.861 151.66 145.004 152.527 143.935 152.527C142.866 152.527 142.009 151.66 142.009 150.601C142.009 142.021 135.028 135.03 126.448 135.03C125.379 135.03 124.522 134.173 124.522 133.104C124.522 132.035 125.379 131.178 126.448 131.178C135.028 131.178 142.009 124.197 142.009 115.617C142.009 114.548 142.876 113.691 143.935 113.691C144.994 113.691 145.861 114.548 145.861 115.617C145.861 124.197 152.852 131.178 161.432 131.178C162.501 131.178 163.358 132.045 163.358 133.104Z" fill="#F28F4D"/>
<path d="M231.178 44.802L223.695 52.2937C223.32 52.6692 222.819 52.8618 222.328 52.8618C221.837 52.8618 221.346 52.6692 220.97 52.2937L213.479 44.802C212.728 44.0509 212.728 42.8376 213.479 42.0865L220.97 34.5948C221.721 33.8437 222.944 33.8437 223.695 34.5948L231.178 42.0865C231.929 42.8376 231.929 44.0509 231.178 44.802Z" fill="#F28F4D"/>
<path d="M39.658 110.571C39.658 116.195 35.0841 120.769 29.4605 120.769C23.8369 120.769 19.2533 116.195 19.2533 110.571C19.2533 104.948 23.8369 100.364 29.4605 100.364C35.0841 100.364 39.658 104.938 39.658 110.571Z" fill="#F28F4D"/>
<path d="M15.7581 202.079C15.7581 193.596 21.2083 187.539 32.7251 187.539C42.056 187.539 47.3907 191.535 49.0855 197.592H53.9291V188.146H66.0429V239.393H53.9291V228.791H49.384C48.0552 235.455 42.6627 240 32.7251 240C21.218 240 15.7581 233.943 15.7581 225.46V202.079ZM17.0292 213.837C24.3572 214.136 32.7155 220.318 32.7155 238.074C32.7155 220.327 41.0161 214.087 48.344 213.779C41.0161 213.471 32.7155 207.299 32.7155 189.484C32.7155 207.299 24.3572 213.538 17.0292 213.837ZM49.6825 219.104H53.9195V207.289H49.6825V219.104Z" fill="#FFBA53"/>
<path d="M78.2239 197.534H71.8011V188.146H106.939V197.534H100.516L107.546 239.393H95.1236L89.3652 198.68L83.6068 239.393H71.1848L78.2143 197.534H78.2239ZM110.271 188.146H122.384V239.393H110.271V188.146Z" fill="#F28F4D"/>
<path d="M128.441 202.079C128.441 193.596 133.593 187.539 145.1 187.539C156.607 187.539 161.759 193.596 161.759 202.079V225.46C161.759 233.943 156.607 240 145.1 240C133.593 240 128.441 233.943 128.441 225.46V202.079ZM129.712 213.837C137.04 214.136 145.1 220.318 145.1 238.074C145.1 220.327 153.16 214.087 160.43 213.779C153.16 213.471 145.1 207.299 145.1 189.484C145.1 207.299 137.04 213.538 129.712 213.837ZM164.792 188.155H176.906V206.268H182.356V216.572H176.906V239.413H164.792V188.165V188.155Z" fill="#FFBA53"/>
<path d="M190.898 197.534H184.475V188.146H219.613V197.534H213.19L220.219 239.393H207.797L202.039 198.68L196.281 239.393H183.859L190.888 197.534H190.898ZM222.944 188.146H235.058V239.393H222.944V188.146Z" fill="#F28F4D"/>
</svg>
