<svg width="274" height="52" viewBox="0 0 274 52" fill="none" xmlns="http://www.w3.org/2000/svg">
<rect width="274" height="41" rx="10" fill="#FF5C00"/>
<path d="M136.329 51.7654L129.686 35.873L142.972 35.873L136.329 51.7654Z" fill="#FF5C00"/>
<path d="M49.19 30.5C49.51 30.52 49.79 30.6 50.03 30.74C50.27 30.86 50.44 31.08 50.54 31.4C50.76 32.14 50.5 32.64 49.76 32.9C49.52 33 49.27 33.06 49.01 33.08C48.77 33.1 48.55 33.11 48.35 33.11H34.4C34 33.11 33.58 33.11 33.14 33.11C32.7 33.11 32.26 33.1 31.82 33.08C31.28 33.06 30.9 32.89 30.68 32.57C30.48 32.25 30.36 31.86 30.32 31.4L30.2 29.42C30.18 29.2 30.18 28.94 30.2 28.64C30.24 28.32 30.35 28.05 30.53 27.83C30.81 27.55 31.13 27.37 31.49 27.29C31.85 27.21 32.25 27.17 32.69 27.17H33.62C33.72 27.17 33.8 27.18 33.86 27.2C33.92 27.2 33.98 27.2 34.04 27.2H47.12V26.15H33.74C33.64 26.15 33.53 26.15 33.41 26.15C33.31 26.13 33.2 26.13 33.08 26.15H32.36C32.16 26.15 31.98 26.15 31.82 26.15C31.66 26.15 31.5 26.13 31.34 26.09C31.16 26.05 30.99 26.01 30.83 25.97C30.69 25.93 30.57 25.83 30.47 25.67C30.35 25.45 30.27 25.24 30.23 25.04C30.19 24.84 30.21 24.62 30.29 24.38C30.35 24.22 30.44 24.1 30.56 24.02C30.68 23.92 30.82 23.84 30.98 23.78C31.14 23.72 31.29 23.68 31.43 23.66C31.59 23.62 31.73 23.59 31.85 23.57C32.01 23.55 32.16 23.54 32.3 23.54C32.46 23.52 32.62 23.51 32.78 23.51H33.29C33.39 23.53 33.48 23.54 33.56 23.54C33.66 23.54 33.76 23.54 33.86 23.54H47.42C48.44 23.54 49.22 23.7 49.76 24.02C50.3 24.32 50.57 24.82 50.57 25.52V27.62C50.57 27.9 50.5 28.17 50.36 28.43C50.24 28.69 50.02 28.92 49.7 29.12C49.44 29.28 49.18 29.37 48.92 29.39C48.66 29.39 48.4 29.39 48.14 29.39H33.89V30.5H49.19ZM30.05 21.47C29.77 21.35 29.57 21.12 29.45 20.78C29.29 20.38 29.26 19.98 29.36 19.58C29.48 19.18 29.66 18.8 29.9 18.44C30.14 18.08 30.41 17.74 30.71 17.42C31.03 17.1 31.3 16.8 31.52 16.52C31.86 16.1 32.2 15.68 32.54 15.26C32.88 14.84 33.22 14.41 33.56 13.97C33.68 13.81 33.82 13.64 33.98 13.46C34.14 13.28 34.29 13.09 34.43 12.89C34.59 12.69 34.72 12.49 34.82 12.29C34.92 12.09 34.98 11.88 35 11.66C35.02 11.32 35.04 10.99 35.06 10.67C35.08 10.33 35.14 10.03 35.24 9.77C35.34 9.49 35.5 9.27 35.72 9.11C35.96 8.95 36.3 8.87 36.74 8.87C37.06 8.87 37.37 8.91 37.67 8.99C37.97 9.05 38.19 9.24 38.33 9.56C38.47 9.92 38.51 10.32 38.45 10.76C38.41 11.18 38.45 11.58 38.57 11.96C38.67 12.3 38.84 12.6 39.08 12.86C39.32 13.1 39.52 13.36 39.68 13.64C40.02 14.26 40.42 14.81 40.88 15.29C41.34 15.77 41.77 16.29 42.17 16.85C42.49 17.27 42.79 17.71 43.07 18.17C43.37 18.61 43.57 19.09 43.67 19.61C43.77 20.05 43.72 20.43 43.52 20.75C43.34 21.05 43.09 21.27 42.77 21.41C42.45 21.55 42.1 21.6 41.72 21.56C41.34 21.5 41.01 21.33 40.73 21.05C39.99 20.29 39.31 19.51 38.69 18.71C38.09 17.89 37.47 17.06 36.83 16.22C36.83 16.22 36.74 16.32 36.56 16.52C36.38 16.7 36.15 16.94 35.87 17.24C35.59 17.52 35.29 17.84 34.97 18.2C34.65 18.54 34.35 18.87 34.07 19.19C33.79 19.51 33.54 19.79 33.32 20.03C33.1 20.25 32.97 20.39 32.93 20.45C32.71 20.71 32.48 20.94 32.24 21.14C32 21.34 31.71 21.48 31.37 21.56C31.15 21.6 30.92 21.62 30.68 21.62C30.46 21.62 30.25 21.57 30.05 21.47ZM50.6 20.6C50.6 20.6 50.59 20.67 50.57 20.81C50.55 20.95 50.51 21.11 50.45 21.29C50.39 21.47 50.3 21.66 50.18 21.86C50.06 22.04 49.9 22.19 49.7 22.31C49.42 22.47 49.14 22.55 48.86 22.55C48.52 22.55 48.19 22.44 47.87 22.22C47.65 22.06 47.48 21.85 47.36 21.59C47.2 21.29 47.09 20.96 47.03 20.6C46.99 20.24 46.96 19.87 46.94 19.49C46.94 19.11 46.95 18.74 46.97 18.38C46.99 18 47 17.64 47 17.3C47.02 16.44 47.03 15.59 47.03 14.75C47.03 13.89 47.03 13.04 47.03 12.2V11.81C47.01 11.59 47 11.36 47 11.12C47.02 10.86 47.06 10.62 47.12 10.4C47.2 10.1 47.38 9.78 47.66 9.44C47.82 9.24 48.04 9.1 48.32 9.02C48.62 8.92 48.94 8.89 49.28 8.93C49.88 9.03 50.28 9.29 50.48 9.71C50.6 9.97 50.65 10.29 50.63 10.67C50.63 11.05 50.62 11.28 50.6 11.36V20.6ZM72.7916 30.5C73.1116 30.54 73.3916 30.62 73.6316 30.74C73.8716 30.86 74.0416 31.08 74.1416 31.4C74.3816 32.12 74.1216 32.63 73.3616 32.93C73.1216 33.03 72.8816 33.09 72.6416 33.11C72.4016 33.13 72.1716 33.14 71.9516 33.14H58.0016C57.6016 33.14 57.1816 33.13 56.7416 33.11C56.3216 33.11 55.8916 33.1 55.4516 33.08C55.0316 33.06 54.6816 32.91 54.4016 32.63C54.1216 32.35 53.9616 31.98 53.9216 31.52L53.8316 29.42C53.8116 29.2 53.8116 28.94 53.8316 28.64C53.8516 28.34 53.9516 28.09 54.1316 27.89C54.4116 27.59 54.7816 27.4 55.2416 27.32C55.7216 27.24 56.1816 27.2 56.6216 27.2C56.9016 27.2 57.3616 27.2 58.0016 27.2C58.6616 27.2 59.5516 27.21 60.6716 27.23C61.7916 27.23 63.1716 27.23 64.8116 27.23C66.4716 27.23 68.4416 27.23 70.7216 27.23V26.15H55.9616C55.7616 26.15 55.5816 26.15 55.4216 26.15C55.2616 26.15 55.1016 26.13 54.9416 26.09C54.7616 26.05 54.6016 26.01 54.4616 25.97C54.3216 25.93 54.2016 25.83 54.1016 25.67C53.8216 25.25 53.7516 24.82 53.8916 24.38C53.9516 24.22 54.0416 24.1 54.1616 24.02C54.2816 23.92 54.4216 23.84 54.5816 23.78C54.7416 23.72 54.8916 23.68 55.0316 23.66C55.1916 23.64 55.3316 23.62 55.4516 23.6C55.7516 23.54 56.0616 23.51 56.3816 23.51C56.6616 23.51 56.9616 23.51 57.2816 23.51C57.6216 23.51 58.0216 23.52 58.4816 23.54C58.9416 23.54 59.4716 23.54 60.0716 23.54C60.6916 23.54 61.4116 23.54 62.2316 23.54C62.2316 23.26 62.2416 23.02 62.2616 22.82C62.2816 22.6 62.2916 22.32 62.2916 21.98C61.8316 21.98 61.2316 21.98 60.4916 21.98C59.7516 21.96 58.9916 21.95 58.2116 21.95C57.4316 21.93 56.6816 21.91 55.9616 21.89C55.2416 21.87 54.6816 21.84 54.2816 21.8C53.9616 21.76 53.7016 21.72 53.5016 21.68C53.3216 21.62 53.1016 21.47 52.8416 21.23C52.7016 21.11 52.6016 20.95 52.5416 20.75C52.4816 20.55 52.4516 20.34 52.4516 20.12C52.4516 19.7 52.5816 19.36 52.8416 19.1C52.9816 18.94 53.1716 18.82 53.4116 18.74C53.6516 18.66 53.8816 18.6 54.1016 18.56C54.3216 18.52 54.5116 18.5 54.6716 18.5C54.8516 18.5 54.9516 18.5 54.9716 18.5H72.1316C72.4316 18.5 72.7316 18.5 73.0316 18.5C73.3316 18.5 73.6216 18.51 73.9016 18.53C74.1816 18.55 74.4516 18.59 74.7116 18.65C74.9916 18.71 75.2416 18.84 75.4616 19.04C75.6816 19.2 75.8016 19.38 75.8216 19.58C75.8616 19.78 75.8816 20 75.8816 20.24C75.8816 20.54 75.7916 20.81 75.6116 21.05C75.4516 21.29 75.2216 21.46 74.9216 21.56C74.5216 21.72 74.1016 21.82 73.6616 21.86C73.2416 21.88 72.8216 21.9 72.4016 21.92C71.4216 21.96 70.4316 21.98 69.4316 21.98C68.4516 21.98 67.4516 21.98 66.4316 21.98C66.4516 22.28 66.4516 22.55 66.4316 22.79C66.4116 23.01 66.4016 23.26 66.4016 23.54H71.0216C72.0416 23.54 72.8216 23.7 73.3616 24.02C73.9016 24.32 74.1716 24.82 74.1716 25.52V27.65C74.1716 27.93 74.1016 28.21 73.9616 28.49C73.8416 28.75 73.6216 28.97 73.3016 29.15C73.0416 29.31 72.7816 29.4 72.5216 29.42C72.2616 29.42 72.0016 29.42 71.7416 29.42H57.5216V30.5H72.7916ZM55.6316 16.82C55.5716 16.82 55.5416 16.8 55.5416 16.76C55.3416 16.6 55.2016 16.37 55.1216 16.07C55.0616 15.75 55.0316 15.48 55.0316 15.26C55.0116 14.9 54.9816 14.54 54.9416 14.18C54.9216 13.82 54.9116 13.47 54.9116 13.13C54.9116 12.61 54.9116 12.1 54.9116 11.6C54.9116 11.1 54.9616 10.6 55.0616 10.1C55.1216 9.78 55.2216 9.53 55.3616 9.35C55.5016 9.15 55.7216 8.99 56.0216 8.87C56.3016 8.77 56.5816 8.7 56.8616 8.66C57.1416 8.62 57.4216 8.58 57.7016 8.54C58.0416 8.5 58.3916 8.49 58.7516 8.51C59.1116 8.53 59.4716 8.54 59.8316 8.54H65.5316C66.0316 8.54 66.4116 8.54 66.6716 8.54C66.9516 8.54 67.2016 8.54 67.4216 8.54C67.6416 8.54 67.8816 8.54 68.1416 8.54C68.4216 8.52 68.8116 8.51 69.3116 8.51C69.4916 8.51 69.6616 8.51 69.8216 8.51C70.0016 8.51 70.1816 8.52 70.3616 8.54C70.7416 8.56 71.1316 8.59 71.5316 8.63C71.9316 8.67 72.3016 8.77 72.6416 8.93C73.0416 9.09 73.3116 9.36 73.4516 9.74C73.5916 10.1 73.6716 10.48 73.6916 10.88C73.7316 11.34 73.7316 11.8 73.6916 12.26C73.6716 12.7 73.6616 13.15 73.6616 13.61C73.6416 14.01 73.6216 14.41 73.6016 14.81C73.6016 15.21 73.5516 15.61 73.4516 16.01C73.3916 16.23 73.3216 16.43 73.2416 16.61C73.1616 16.77 73.0016 16.89 72.7616 16.97C72.5416 17.05 72.3116 17.1 72.0716 17.12C71.8316 17.14 71.6016 17.15 71.3816 17.15H58.4216C58.2216 17.15 58.0216 17.15 57.8216 17.15C57.6416 17.13 57.4516 17.11 57.2516 17.09C56.9916 17.07 56.7116 17.06 56.4116 17.06C56.1116 17.06 55.8516 16.98 55.6316 16.82ZM58.4816 13.31C58.4816 13.41 58.4816 13.51 58.4816 13.61C58.5016 13.69 58.5316 13.75 58.5716 13.79C58.6116 13.83 58.6816 13.86 58.7816 13.88C58.8816 13.88 58.9816 13.88 59.0816 13.88C59.1816 13.88 59.3016 13.87 59.4416 13.85H67.3316C67.6116 13.87 67.8816 13.89 68.1416 13.91C68.3616 13.93 68.5916 13.94 68.8316 13.94C69.0916 13.94 69.3116 13.92 69.4916 13.88C69.7116 13.86 69.8316 13.81 69.8516 13.73C69.8916 13.63 69.9316 13.49 69.9716 13.31C69.9916 13.15 70.0016 12.97 70.0016 12.77C70.0016 12.55 69.9416 12.36 69.8216 12.2C69.6816 12.04 69.4816 11.96 69.2216 11.96C68.9616 11.94 68.7416 11.94 68.5616 11.96H65.8316C65.7716 11.96 65.5316 11.96 65.1116 11.96C64.6916 11.96 64.2316 11.96 63.7316 11.96C63.2516 11.96 62.8016 11.96 62.3816 11.96C61.9616 11.96 61.7216 11.96 61.6616 11.96C61.2416 11.92 60.8216 11.91 60.4016 11.93C59.9816 11.93 59.5516 11.94 59.1116 11.96C58.9316 11.96 58.8016 11.97 58.7216 11.99C58.6416 11.99 58.5816 12.08 58.5416 12.26C58.5016 12.4 58.4816 12.54 58.4816 12.68C58.4816 12.8 58.4816 12.92 58.4816 13.04V13.31ZM83.9002 8.84C84.1602 8.84 84.4102 8.85 84.6502 8.87C84.8902 8.89 85.1302 8.92 85.3702 8.96C86.1302 9.08 86.8002 9.43 87.3802 10.01C87.8602 10.53 88.2502 11.13 88.5502 11.81C88.8702 12.47 89.1202 13.17 89.3002 13.91C89.4802 14.65 89.6102 15.41 89.6902 16.19C89.7702 16.95 89.8302 17.69 89.8702 18.41C89.9102 19.33 89.9202 20.25 89.9002 21.17C89.8802 22.09 89.8202 23 89.7202 23.9C89.6202 24.84 89.4702 25.79 89.2702 26.75C89.0902 27.69 88.7502 28.54 88.2502 29.3C87.8302 29.94 87.3102 30.47 86.6902 30.89C86.0702 31.29 85.4202 31.56 84.7402 31.7C84.1202 31.82 83.4902 31.84 82.8502 31.76C82.2102 31.68 81.6002 31.47 81.0202 31.13C80.4802 30.81 80.0202 30.41 79.6402 29.93C79.2802 29.45 78.9602 28.89 78.6802 28.25C78.2802 27.29 78.0502 26.3 77.9902 25.28C77.9102 24.44 77.8502 23.6 77.8102 22.76C77.7902 21.92 77.7802 21.08 77.7802 20.24C77.7802 19.12 77.8402 18 77.9602 16.88C78.0002 16.42 78.0402 15.97 78.0802 15.53C78.1202 15.07 78.1802 14.62 78.2602 14.18C78.3402 13.82 78.4102 13.48 78.4702 13.16C78.5302 12.84 78.6402 12.51 78.8002 12.17C78.9602 11.83 79.1302 11.51 79.3102 11.21C79.5102 10.91 79.7402 10.64 80.0002 10.4C80.4402 9.96 80.9302 9.62 81.4702 9.38C82.0102 9.14 82.5702 8.98 83.1502 8.9C83.2702 8.88 83.3902 8.87 83.5102 8.87C83.6502 8.87 83.7802 8.86 83.9002 8.84ZM98.4502 30.32C98.4102 30.56 98.3802 30.8 98.3602 31.04C98.3402 31.26 98.2902 31.49 98.2102 31.73C98.1702 31.81 98.1402 31.88 98.1202 31.94C98.1002 32 98.0702 32.07 98.0302 32.15C97.8902 32.43 97.7102 32.65 97.4902 32.81C97.0302 33.09 96.5202 33.16 95.9602 33.02C95.6402 32.96 95.3802 32.84 95.1802 32.66C95.0002 32.5 94.8602 32.29 94.7602 32.03C94.6802 31.79 94.6102 31.55 94.5502 31.31C94.5102 31.07 94.4902 30.86 94.4902 30.68C94.4902 30.5 94.4902 30.4 94.4902 30.38V12.23C94.4902 11.99 94.4902 11.73 94.4902 11.45C94.4902 11.17 94.5102 10.89 94.5502 10.61C94.5902 10.33 94.6502 10.07 94.7302 9.83C94.8102 9.59 94.9202 9.4 95.0602 9.26C95.2802 9.04 95.5102 8.91 95.7502 8.87C95.9902 8.81 96.2502 8.78 96.5302 8.78C96.8702 8.78 97.1802 8.88 97.4602 9.08C97.7602 9.26 97.9702 9.52 98.0902 9.86C98.2702 10.28 98.3702 10.72 98.3902 11.18C98.4102 11.64 98.4302 12.1 98.4502 12.56V12.71C98.4902 14.25 98.5002 15.83 98.4802 17.45C98.4602 19.07 98.4502 20.6 98.4502 22.04V29.24C98.4502 29.42 98.4502 29.6 98.4502 29.78C98.4702 29.96 98.4702 30.14 98.4502 30.32ZM83.8102 27.71C84.1902 27.71 84.5602 27.59 84.9202 27.35C85.2602 27.11 85.5002 26.79 85.6402 26.39C85.7802 25.99 85.9002 25.55 86.0002 25.07C86.1602 24.15 86.2502 23.17 86.2702 22.13C86.2902 21.09 86.2802 20.09 86.2402 19.13C86.2402 18.75 86.2302 18.35 86.2102 17.93C86.1902 17.49 86.1502 17.06 86.0902 16.64C86.0502 16.22 85.9802 15.82 85.8802 15.44C85.7802 15.04 85.6402 14.69 85.4602 14.39C85.2602 14.05 85.0202 13.79 84.7402 13.61C84.4602 13.43 84.1602 13.36 83.8402 13.4C83.5002 13.44 83.1902 13.56 82.9102 13.76C82.6302 13.96 82.4002 14.26 82.2202 14.66L81.9502 15.29C81.8302 15.67 81.7402 16.07 81.6802 16.49C81.6202 16.89 81.5702 17.29 81.5302 17.69C81.4902 18.09 81.4602 18.5 81.4402 18.92C81.4202 19.34 81.4102 19.75 81.4102 20.15C81.4302 20.55 81.4202 20.94 81.3802 21.32C81.3602 21.7 81.3702 22.09 81.4102 22.49C81.4502 23.01 81.5002 23.57 81.5602 24.17C81.6402 24.77 81.7602 25.34 81.9202 25.88C82.0802 26.4 82.3102 26.84 82.6102 27.2C82.9102 27.54 83.3102 27.71 83.8102 27.71ZM110.559 28.73C110.559 27.99 110.759 27.36 111.159 26.84C111.579 26.32 112.149 25.9 112.869 25.58C113.589 25.26 114.439 25.02 115.419 24.86C116.399 24.7 117.459 24.6 118.599 24.56C118.599 24.24 118.599 23.92 118.599 23.6C118.619 23.26 118.629 22.95 118.629 22.67C117.709 22.67 116.809 22.67 115.929 22.67C115.049 22.67 114.189 22.65 113.349 22.61C113.009 22.59 112.609 22.58 112.149 22.58C111.709 22.58 111.329 22.56 111.009 22.52C110.949 22.52 110.879 22.52 110.799 22.52C110.739 22.5 110.679 22.49 110.619 22.49C110.299 22.45 110.039 22.41 109.839 22.37C109.659 22.31 109.439 22.16 109.179 21.92C109.039 21.8 108.939 21.64 108.879 21.44C108.819 21.24 108.789 21.03 108.789 20.81C108.789 20.39 108.919 20.05 109.179 19.79C109.319 19.63 109.509 19.51 109.749 19.43C109.989 19.35 110.219 19.29 110.439 19.25C110.659 19.21 110.849 19.19 111.009 19.19C111.189 19.19 111.289 19.19 111.309 19.19H128.469C128.769 19.19 129.069 19.19 129.369 19.19C129.669 19.19 129.959 19.2 130.239 19.22C130.519 19.24 130.789 19.28 131.049 19.34C131.329 19.4 131.579 19.53 131.799 19.73C132.019 19.89 132.139 20.07 132.159 20.27C132.199 20.47 132.219 20.69 132.219 20.93C132.219 21.23 132.129 21.5 131.949 21.74C131.789 21.98 131.559 22.15 131.259 22.25C130.859 22.41 130.439 22.51 129.999 22.55C129.579 22.57 129.159 22.59 128.739 22.61H128.589C127.589 22.65 126.619 22.67 125.679 22.67C124.759 22.67 123.789 22.67 122.769 22.67C122.789 22.97 122.799 23.25 122.799 23.51C122.799 23.77 122.789 24.13 122.769 24.59C123.849 24.63 124.839 24.72 125.739 24.86C126.659 25 127.449 25.23 128.109 25.55C128.769 25.85 129.279 26.26 129.639 26.78C130.019 27.28 130.209 27.93 130.209 28.73C130.209 29.67 129.949 30.42 129.429 30.98C128.909 31.52 128.199 31.93 127.299 32.21C126.419 32.51 125.379 32.7 124.179 32.78C122.999 32.88 121.729 32.93 120.369 32.93C119.009 32.93 117.729 32.88 116.529 32.78C115.349 32.7 114.319 32.51 113.439 32.21C112.559 31.93 111.859 31.52 111.339 30.98C110.819 30.42 110.559 29.67 110.559 28.73ZM112.509 13.76C112.169 13.74 111.839 13.69 111.519 13.61C111.199 13.51 110.919 13.38 110.679 13.22C110.439 13.06 110.269 12.85 110.169 12.59C110.069 12.33 110.069 12.01 110.169 11.63C110.329 10.99 110.719 10.51 111.339 10.19C111.799 9.93 112.279 9.78 112.779 9.74C113.299 9.7 113.819 9.68 114.339 9.68C114.499 9.66 114.659 9.65 114.819 9.65C114.999 9.65 115.169 9.65 115.329 9.65C115.489 9.63 115.649 9.62 115.809 9.62C115.989 9.62 116.169 9.62 116.349 9.62C116.449 9.62 116.699 9.62 117.099 9.62C117.499 9.62 117.969 9.62 118.509 9.62C119.069 9.62 119.659 9.63 120.279 9.65C120.899 9.65 121.479 9.65 122.019 9.65C122.579 9.65 123.059 9.66 123.459 9.68C123.859 9.68 124.109 9.68 124.209 9.68C124.529 9.7 124.839 9.72 125.139 9.74C125.459 9.74 125.779 9.74 126.099 9.74C126.579 9.74 127.059 9.77 127.539 9.83C128.019 9.87 128.489 9.96 128.949 10.1C129.389 10.24 129.639 10.47 129.699 10.79C129.779 11.09 129.849 11.44 129.909 11.84C129.969 12.28 130.009 12.69 130.029 13.07C130.069 13.43 130.079 13.79 130.059 14.15C130.059 14.49 130.039 14.85 129.999 15.23C129.959 15.59 129.919 15.99 129.879 16.43C129.839 16.83 129.769 17.19 129.669 17.51C129.569 17.83 129.319 18.07 128.919 18.23C128.599 18.35 128.209 18.42 127.749 18.44C127.289 18.46 126.929 18.33 126.669 18.05C126.569 17.93 126.489 17.78 126.429 17.6C126.369 17.42 126.319 17.23 126.279 17.03C126.259 16.81 126.239 16.6 126.219 16.4C126.219 16.2 126.209 16.02 126.189 15.86C126.149 15.58 126.149 15.29 126.189 14.99C126.229 14.67 126.169 14.4 126.009 14.18C125.869 14 125.679 13.88 125.439 13.82C125.219 13.74 124.979 13.7 124.719 13.7C124.459 13.68 124.199 13.68 123.939 13.7C123.679 13.7 123.459 13.7 123.279 13.7H114.789C114.669 13.7 114.529 13.71 114.369 13.73C114.209 13.73 114.049 13.74 113.889 13.76C113.509 13.8 113.049 13.8 112.509 13.76ZM126.249 28.73C126.249 28.41 126.069 28.17 125.709 28.01C125.369 27.83 124.909 27.7 124.329 27.62C123.769 27.54 123.139 27.5 122.439 27.5C121.739 27.48 121.049 27.47 120.369 27.47C119.689 27.47 119.009 27.48 118.329 27.5C117.649 27.5 117.039 27.54 116.499 27.62C115.959 27.7 115.519 27.83 115.179 28.01C114.859 28.17 114.699 28.41 114.699 28.73C114.699 29.01 114.859 29.24 115.179 29.42C115.519 29.58 115.959 29.71 116.499 29.81C117.039 29.89 117.649 29.94 118.329 29.96C119.009 29.98 119.689 29.99 120.369 29.99C121.049 29.99 121.739 30 122.439 30.02C123.139 30.02 123.769 29.99 124.329 29.93C124.909 29.87 125.369 29.75 125.709 29.57C126.069 29.39 126.249 29.11 126.249 28.73ZM135.768 32.54C135.748 32.54 135.718 32.52 135.678 32.48C135.478 32.32 135.338 32.1 135.258 31.82C135.198 31.54 135.168 31.29 135.168 31.07C135.148 30.71 135.118 30.35 135.078 29.99C135.058 29.63 135.048 29.28 135.048 28.94C135.048 28.42 135.048 27.95 135.048 27.53C135.048 27.11 135.098 26.65 135.198 26.15C135.258 25.83 135.358 25.58 135.498 25.4C135.638 25.2 135.858 25.04 136.158 24.92C136.718 24.7 137.278 24.59 137.838 24.59H151.368C151.748 24.61 152.138 24.64 152.538 24.68C152.938 24.72 153.318 24.82 153.678 24.98C154.078 25.14 154.338 25.37 154.458 25.67C154.598 25.95 154.688 26.29 154.728 26.69C154.748 27.03 154.758 27.42 154.758 27.86C154.778 28.3 154.778 28.75 154.758 29.21C154.738 29.65 154.708 30.09 154.668 30.53C154.628 30.97 154.558 31.37 154.458 31.73C154.398 31.95 154.328 32.14 154.248 32.3C154.168 32.48 154.008 32.61 153.768 32.69C153.548 32.77 153.318 32.82 153.078 32.84C152.858 32.86 152.638 32.87 152.418 32.87L137.388 32.81C137.128 32.79 136.848 32.78 136.548 32.78C136.248 32.78 135.988 32.7 135.768 32.54ZM137.178 13.88C136.838 13.86 136.508 13.81 136.188 13.73C135.868 13.63 135.588 13.5 135.348 13.34C135.108 13.18 134.938 12.97 134.838 12.71C134.738 12.45 134.738 12.13 134.838 11.75C134.998 11.11 135.388 10.63 136.008 10.31C136.468 10.05 136.948 9.9 137.448 9.86C137.968 9.82 138.488 9.8 139.008 9.8C139.168 9.78 139.328 9.77 139.488 9.77C139.668 9.77 139.838 9.77 139.998 9.77C140.158 9.75 140.318 9.74 140.478 9.74C140.658 9.74 140.838 9.74 141.018 9.74C141.178 9.74 141.598 9.74 142.278 9.74C142.978 9.74 143.728 9.75 144.528 9.77C145.328 9.77 146.068 9.78 146.748 9.8C147.428 9.8 147.848 9.8 148.008 9.8C148.328 9.82 148.638 9.84 148.938 9.86C149.258 9.86 149.578 9.86 149.898 9.86C150.378 9.86 150.858 9.89 151.338 9.95C151.818 9.99 152.288 10.08 152.748 10.22C153.188 10.36 153.438 10.59 153.498 10.91C153.578 11.21 153.648 11.56 153.708 11.96C153.768 12.4 153.808 12.79 153.828 13.13C153.868 13.47 153.878 13.8 153.858 14.12C153.858 14.44 153.838 14.77 153.798 15.11C153.758 15.45 153.718 15.84 153.678 16.28C153.638 16.68 153.568 17.04 153.468 17.36C153.368 17.68 153.118 17.92 152.718 18.08C152.398 18.2 152.008 18.27 151.548 18.29C151.088 18.31 150.728 18.18 150.468 17.9C150.248 17.68 150.118 17.39 150.078 17.03C150.058 16.65 150.028 16.31 149.988 16.01C149.948 15.73 149.938 15.43 149.958 15.11C149.978 14.79 149.908 14.52 149.748 14.3C149.608 14.12 149.418 14 149.178 13.94C148.958 13.86 148.718 13.82 148.458 13.82C148.218 13.8 147.968 13.8 147.708 13.82C147.468 13.82 147.258 13.82 147.078 13.82H139.458C139.338 13.82 139.198 13.83 139.038 13.85C138.878 13.85 138.718 13.86 138.558 13.88C138.178 13.92 137.718 13.92 137.178 13.88ZM152.448 19.28C152.768 19.28 153.128 19.28 153.528 19.28C153.948 19.28 154.328 19.33 154.668 19.43C155.008 19.53 155.298 19.71 155.538 19.97C155.778 20.21 155.898 20.59 155.898 21.11C155.898 21.59 155.698 22.01 155.298 22.37C154.978 22.65 154.588 22.81 154.128 22.85C153.688 22.87 153.268 22.87 152.868 22.85C152.848 22.85 152.788 22.85 152.688 22.85C152.608 22.83 152.398 22.82 152.058 22.82C151.738 22.82 151.228 22.82 150.528 22.82C149.828 22.82 148.848 22.82 147.588 22.82C146.348 22.82 144.768 22.82 142.848 22.82C140.928 22.82 138.578 22.82 135.798 22.82C135.778 22.82 135.688 22.82 135.528 22.82C135.368 22.82 135.178 22.8 134.958 22.76C134.758 22.72 134.548 22.67 134.328 22.61C134.108 22.53 133.928 22.41 133.788 22.25C133.548 21.99 133.428 21.64 133.428 21.2C133.428 20.78 133.558 20.44 133.818 20.18C134.078 19.94 134.348 19.74 134.628 19.58C134.908 19.42 135.198 19.32 135.498 19.28C135.558 19.28 135.618 19.29 135.678 19.31C135.738 19.31 135.798 19.3 135.858 19.28C136.138 19.24 136.438 19.24 136.758 19.28C137.078 19.3 137.408 19.3 137.748 19.28C138.788 19.24 139.838 19.23 140.898 19.25C141.978 19.27 143.098 19.28 144.258 19.28C145.518 19.28 146.858 19.27 148.278 19.25C149.698 19.23 151.088 19.24 152.448 19.28ZM138.618 29.12C138.618 29.22 138.618 29.32 138.618 29.42C138.638 29.52 138.678 29.59 138.738 29.63C138.778 29.67 138.838 29.7 138.918 29.72C139.018 29.72 139.118 29.72 139.218 29.72C139.318 29.72 139.438 29.71 139.578 29.69H148.368C148.648 29.71 148.918 29.73 149.178 29.75C149.398 29.77 149.628 29.78 149.868 29.78C150.108 29.78 150.328 29.76 150.528 29.72C150.728 29.7 150.848 29.64 150.888 29.54C150.928 29.44 150.958 29.3 150.978 29.12C150.998 28.96 151.008 28.78 151.008 28.58C151.008 28.36 150.948 28.17 150.828 28.01C150.688 27.85 150.488 27.77 150.228 27.77C149.988 27.75 149.768 27.75 149.568 27.77H141.828C141.388 27.73 140.958 27.72 140.538 27.74C140.118 27.74 139.688 27.75 139.248 27.77C139.088 27.77 138.958 27.78 138.858 27.8C138.778 27.8 138.718 27.89 138.678 28.07C138.638 28.21 138.618 28.35 138.618 28.49C138.618 28.61 138.618 28.73 138.618 28.85C138.638 28.89 138.638 28.93 138.618 28.97C138.618 29.01 138.618 29.06 138.618 29.12ZM164.78 16.16C165.86 16.2 166.77 16.46 167.51 16.94C168.25 17.42 168.85 18.04 169.31 18.8C169.77 19.56 170.09 20.42 170.27 21.38C170.45 22.34 170.52 23.31 170.48 24.29C170.46 25.27 170.32 26.23 170.06 27.17C169.82 28.11 169.5 28.94 169.1 29.66C168.66 30.44 168.04 31.04 167.24 31.46C166.46 31.86 165.62 32.09 164.72 32.15C163.82 32.21 162.93 32.09 162.05 31.79C161.19 31.49 160.46 31.02 159.86 30.38C159.34 29.82 158.97 29.24 158.75 28.64C158.53 28.02 158.37 27.34 158.27 26.6C158.17 25.86 158.09 25.15 158.03 24.47C157.97 23.77 157.96 23.08 158 22.4C158.04 21.72 158.15 21.05 158.33 20.39C158.53 19.73 158.83 19.07 159.23 18.41C159.45 18.03 159.76 17.7 160.16 17.42C160.56 17.12 161.01 16.88 161.51 16.7C162.01 16.5 162.54 16.36 163.1 16.28C163.68 16.18 164.24 16.14 164.78 16.16ZM178.82 18.35C178.92 18.35 179.01 18.36 179.09 18.38C179.19 18.4 179.29 18.41 179.39 18.41C179.49 18.43 179.6 18.45 179.72 18.47C179.84 18.47 179.96 18.48 180.08 18.5C180.3 18.54 180.52 18.62 180.74 18.74C180.96 18.84 181.12 19 181.22 19.22C181.36 19.44 181.43 19.7 181.43 20C181.43 20.16 181.42 20.31 181.4 20.45C181.4 20.57 181.38 20.71 181.34 20.87C181.3 21.03 181.25 21.2 181.19 21.38C181.15 21.56 181.06 21.7 180.92 21.8C180.64 22 180.37 22.13 180.11 22.19C179.79 22.23 179.4 22.24 178.94 22.22C178.48 22.2 178.09 22.2 177.77 22.22C177.75 22.22 177.73 22.23 177.71 22.25H177.68L177.65 22.28V22.37C177.63 22.87 177.62 23.45 177.62 24.11C177.64 24.77 177.65 25.36 177.65 25.88C177.69 26.92 177.69 27.94 177.65 28.94V29.36C177.65 29.62 177.64 29.91 177.62 30.23C177.62 30.53 177.6 30.83 177.56 31.13C177.52 31.43 177.45 31.72 177.35 32C177.25 32.26 177.11 32.48 176.93 32.66C176.69 32.94 176.37 33.08 175.97 33.08C175.97 33.08 175.95 33.07 175.91 33.05C175.43 33.03 175.04 32.89 174.74 32.63C174.46 32.37 174.24 32.05 174.08 31.67C173.94 31.29 173.85 30.9 173.81 30.5C173.77 30.08 173.75 29.71 173.75 29.39V11.57C173.75 11.55 173.75 11.46 173.75 11.3C173.75 11.12 173.77 10.92 173.81 10.7C173.85 10.46 173.91 10.22 173.99 9.98C174.09 9.72 174.22 9.51 174.38 9.35C174.52 9.21 174.72 9.11 174.98 9.05C175.26 8.97 175.51 8.93 175.73 8.93C176.17 8.93 176.54 9.08 176.84 9.38C177.12 9.66 177.28 9.96 177.32 10.28C177.38 10.58 177.43 10.9 177.47 11.24C177.49 11.32 177.5 11.44 177.5 11.6C177.54 11.94 177.56 12.29 177.56 12.65C177.58 13.01 177.6 13.37 177.62 13.73C177.62 13.95 177.62 14.17 177.62 14.39C177.64 14.59 177.65 14.8 177.65 15.02C177.63 15.14 177.62 15.26 177.62 15.38C177.64 15.48 177.65 15.58 177.65 15.68V17.63C177.65 17.73 177.65 17.84 177.65 17.96C177.65 18.08 177.67 18.19 177.71 18.29C177.71 18.31 177.81 18.32 178.01 18.32C178.21 18.32 178.32 18.32 178.34 18.32C178.52 18.36 178.66 18.37 178.76 18.35H178.82ZM168.98 11.36C169.38 11.36 169.78 11.42 170.18 11.54C170.58 11.66 170.89 11.92 171.11 12.32C171.25 12.58 171.3 12.91 171.26 13.31C171.22 13.69 171.1 14.01 170.9 14.27C170.7 14.51 170.39 14.68 169.97 14.78C169.55 14.88 169.11 14.95 168.65 14.99C168.19 15.01 167.76 15.01 167.36 14.99C166.98 14.97 166.72 14.96 166.58 14.96C166.42 14.98 166.26 14.99 166.1 14.99C165.96 14.99 165.8 14.99 165.62 14.99H164.66C164.5 14.97 164.34 14.96 164.18 14.96C164.04 14.96 163.89 14.96 163.73 14.96L160.19 14.9C159.17 14.9 158.44 14.77 158 14.51C157.56 14.25 157.3 13.84 157.22 13.28C157.14 12.7 157.29 12.23 157.67 11.87C157.95 11.63 158.18 11.48 158.36 11.42C158.56 11.36 158.81 11.33 159.11 11.33C159.19 11.33 159.27 11.34 159.35 11.36C159.43 11.36 159.51 11.36 159.59 11.36H160.34C160.62 11.36 160.95 11.36 161.33 11.36C161.71 11.34 162.04 11.32 162.32 11.3C162.32 11.22 162.32 11.11 162.32 10.97C162.34 10.81 162.35 10.65 162.35 10.49C162.37 10.33 162.38 10.18 162.38 10.04C162.4 9.88 162.41 9.77 162.41 9.71C162.45 9.37 162.56 9.06 162.74 8.78C163.16 8.2 163.68 7.93 164.3 7.97C164.58 8.01 164.86 8.06 165.14 8.12C165.42 8.16 165.65 8.3 165.83 8.54C166.05 8.86 166.15 9.3 166.13 9.86C166.13 10.4 166.15 10.89 166.19 11.33H167.06C167.22 11.33 167.45 11.34 167.75 11.36C168.05 11.36 168.28 11.36 168.44 11.36H168.98ZM164.66 28.85C165.1 28.79 165.48 28.62 165.8 28.34C166.12 28.04 166.38 27.69 166.58 27.29C166.78 26.89 166.92 26.46 167 26C167.08 25.54 167.12 25.11 167.12 24.71C167.12 24.37 167.1 23.99 167.06 23.57C167.04 23.13 166.99 22.71 166.91 22.31C166.83 21.89 166.7 21.51 166.52 21.17C166.34 20.81 166.1 20.52 165.8 20.3C165.52 20.12 165.19 20.01 164.81 19.97C164.43 19.91 164.04 19.92 163.64 20C163.26 20.08 162.91 20.22 162.59 20.42C162.27 20.6 162.04 20.85 161.9 21.17C161.52 21.99 161.32 22.81 161.3 23.63C161.3 24.45 161.39 25.29 161.57 26.15C161.67 26.59 161.81 27.05 161.99 27.53C162.17 27.99 162.45 28.35 162.83 28.61C162.91 28.67 163.03 28.72 163.19 28.76C163.37 28.78 163.55 28.8 163.73 28.82C163.93 28.84 164.11 28.86 164.27 28.88C164.45 28.88 164.58 28.87 164.66 28.85ZM194.602 27.77C195.182 27.77 195.702 27.87 196.162 28.07C196.642 28.27 196.922 28.69 197.002 29.33C197.042 29.65 196.992 29.94 196.852 30.2C196.732 30.46 196.562 30.68 196.342 30.86C196.122 31.04 195.862 31.18 195.562 31.28C195.282 31.38 195.012 31.44 194.752 31.46C194.532 31.46 194.142 31.46 193.582 31.46C193.042 31.46 192.432 31.46 191.752 31.46C191.092 31.46 190.412 31.46 189.712 31.46C189.012 31.46 188.422 31.46 187.942 31.46H187.702C187.242 31.44 186.762 31.42 186.262 31.4C185.782 31.38 185.312 31.3 184.852 31.16C184.532 31.06 184.232 30.88 183.952 30.62C183.672 30.36 183.452 30.06 183.292 29.72C183.192 29.5 183.122 29.24 183.082 28.94C183.042 28.62 183.012 28.32 182.992 28.04C182.972 27.74 182.962 27.48 182.962 27.26C182.982 27.04 182.992 26.92 182.992 26.9V14.15C182.992 14.09 182.982 13.93 182.962 13.67C182.942 13.41 182.932 13.11 182.932 12.77C182.952 12.43 182.982 12.08 183.022 11.72C183.082 11.36 183.192 11.06 183.352 10.82C183.472 10.62 183.682 10.46 183.982 10.34C184.302 10.22 184.622 10.13 184.942 10.07C185.282 10.01 185.582 9.98 185.842 9.98C186.122 9.96 186.292 9.95 186.352 9.95H193.372C193.392 9.95 193.542 9.95 193.822 9.95C194.122 9.95 194.442 9.99 194.782 10.07C195.122 10.13 195.452 10.24 195.772 10.4C196.092 10.56 196.302 10.8 196.402 11.12C196.442 11.24 196.462 11.39 196.462 11.57C196.482 11.73 196.492 11.91 196.492 12.11C196.492 12.29 196.472 12.46 196.432 12.62C196.412 12.78 196.382 12.9 196.342 12.98C196.202 13.24 195.952 13.42 195.592 13.52C195.192 13.62 194.622 13.67 193.882 13.67C193.762 13.67 193.622 13.67 193.462 13.67C193.322 13.67 193.092 13.67 192.772 13.67C192.472 13.65 192.042 13.64 191.482 13.64C190.942 13.64 190.212 13.64 189.292 13.64C189.012 13.64 188.722 13.65 188.422 13.67C188.142 13.69 187.932 13.73 187.792 13.79C187.652 13.85 187.542 13.97 187.462 14.15C187.402 14.31 187.352 14.5 187.312 14.72C187.292 14.92 187.282 15.12 187.282 15.32C187.282 15.52 187.292 15.68 187.312 15.8V15.83L187.432 26.21C187.432 26.61 187.522 26.94 187.702 27.2C187.882 27.44 188.202 27.56 188.662 27.56C188.722 27.56 188.932 27.58 189.292 27.62C189.672 27.64 190.142 27.66 190.702 27.68C191.282 27.7 191.912 27.72 192.592 27.74C193.272 27.76 193.942 27.77 194.602 27.77ZM204.952 18.29C205.312 18.37 205.622 18.53 205.882 18.77C206.162 19.01 206.302 19.35 206.302 19.79C206.302 19.95 206.292 20.1 206.272 20.24C206.272 20.36 206.252 20.5 206.212 20.66C206.152 21 206.022 21.29 205.822 21.53C205.642 21.77 205.362 21.89 204.982 21.89L202.522 21.92C202.502 22.44 202.492 23.02 202.492 23.66C202.492 24.3 202.492 24.96 202.492 25.64C202.492 26.32 202.492 27.01 202.492 27.71C202.512 28.39 202.522 29.04 202.522 29.66C202.522 29.92 202.512 30.24 202.492 30.62C202.472 31 202.402 31.37 202.282 31.73C202.162 32.07 201.982 32.37 201.742 32.63C201.502 32.89 201.162 33.03 200.722 33.05C200.242 33.09 199.862 33.01 199.582 32.81C199.302 32.61 199.092 32.35 198.952 32.03C198.812 31.73 198.722 31.4 198.682 31.04C198.642 30.66 198.622 30.31 198.622 29.99V11.57C198.622 11.55 198.622 11.46 198.622 11.3C198.622 11.12 198.642 10.92 198.682 10.7C198.722 10.46 198.782 10.22 198.862 9.98C198.962 9.72 199.092 9.51 199.252 9.35C199.392 9.21 199.592 9.11 199.852 9.05C200.132 8.97 200.382 8.93 200.602 8.93C201.042 8.93 201.412 9.08 201.712 9.38C201.992 9.66 202.152 9.96 202.192 10.28C202.252 10.58 202.302 10.9 202.342 11.24C202.442 12.34 202.502 13.47 202.522 14.63C202.562 15.79 202.582 16.94 202.582 18.08L204.952 18.29ZM216.475 21.83C216.335 21.85 216.015 21.86 215.515 21.86C215.035 21.86 214.515 21.86 213.955 21.86C213.395 21.84 212.865 21.83 212.365 21.83C211.865 21.83 211.535 21.83 211.375 21.83H211.345C210.985 21.83 210.625 21.83 210.265 21.83C209.925 21.81 209.595 21.78 209.275 21.74C208.955 21.68 208.665 21.59 208.405 21.47C208.145 21.35 207.935 21.17 207.775 20.93C207.595 20.67 207.465 20.34 207.385 19.94C207.325 19.54 207.275 19.16 207.235 18.8C207.215 18.42 207.205 18.09 207.205 17.81C207.225 17.53 207.235 17.38 207.235 17.36V16.7C207.235 16.48 207.235 16.23 207.235 15.95C207.235 15.67 207.245 15.36 207.265 15.02C207.265 14.66 207.265 14.31 207.265 13.97C207.285 13.61 207.295 13.29 207.295 13.01V12.05C207.295 11.99 207.295 11.88 207.295 11.72C207.295 11.56 207.305 11.39 207.325 11.21C207.345 11.01 207.375 10.82 207.415 10.64C207.455 10.44 207.515 10.28 207.595 10.16C207.775 9.88 207.955 9.68 208.135 9.56C208.335 9.42 208.585 9.32 208.885 9.26C208.985 9.24 209.135 9.23 209.335 9.23C209.535 9.21 209.725 9.19 209.905 9.17C210.125 9.15 210.355 9.14 210.595 9.14H217.375C217.815 9.14 218.275 9.18 218.755 9.26C219.255 9.32 219.695 9.47 220.075 9.71C220.375 9.89 220.585 10.12 220.705 10.4C220.825 10.68 220.905 10.98 220.945 11.3C220.985 11.62 220.995 11.95 220.975 12.29C220.955 12.61 220.945 12.91 220.945 13.19C220.945 13.51 220.935 13.83 220.915 14.15C220.915 14.45 220.925 14.76 220.945 15.08V16.73C220.925 16.83 220.915 16.94 220.915 17.06C220.935 17.18 220.945 17.3 220.945 17.42C220.905 17.68 220.895 17.94 220.915 18.2C220.935 18.44 220.945 18.7 220.945 18.98C220.945 19.2 220.925 19.44 220.885 19.7C220.865 19.94 220.805 20.19 220.705 20.45C220.625 20.69 220.505 20.91 220.345 21.11C220.205 21.31 220.015 21.45 219.775 21.53C219.255 21.75 218.705 21.86 218.125 21.86C217.565 21.84 217.015 21.83 216.475 21.83ZM227.905 29.3C227.905 29.3 227.965 29.32 228.085 29.36C228.225 29.4 228.375 29.47 228.535 29.57C228.695 29.65 228.845 29.77 228.985 29.93C229.125 30.07 229.215 30.24 229.255 30.44C229.355 31.2 229.225 31.79 228.865 32.21C228.625 32.49 228.365 32.66 228.085 32.72C227.805 32.78 227.655 32.81 227.635 32.81H212.005C211.185 32.81 210.545 32.68 210.085 32.42C209.625 32.18 209.395 31.83 209.395 31.37V27.77C209.395 27.65 209.385 27.5 209.365 27.32C209.365 27.14 209.365 26.95 209.365 26.75C209.365 26.53 209.365 26.33 209.365 26.15C209.385 25.97 209.395 25.82 209.395 25.7C209.435 25.28 209.635 24.94 209.995 24.68C210.355 24.42 210.765 24.29 211.225 24.29C211.325 24.29 211.445 24.3 211.585 24.32C211.745 24.32 211.875 24.34 211.975 24.38C212.235 24.46 212.445 24.6 212.605 24.8C212.765 24.98 212.885 25.19 212.965 25.43C213.045 25.67 213.095 25.93 213.115 26.21C213.135 26.47 213.155 26.71 213.175 26.93C213.175 27.01 213.175 27.17 213.175 27.41C213.175 27.63 213.175 27.87 213.175 28.13C213.175 28.39 213.175 28.63 213.175 28.85C213.175 29.05 213.175 29.18 213.175 29.24C213.235 29.26 213.395 29.29 213.655 29.33C213.935 29.35 214.445 29.36 215.185 29.36C215.825 29.36 216.395 29.35 216.895 29.33C217.395 29.31 217.655 29.3 217.675 29.3H227.905ZM228.895 9.77C228.955 9.91 229.005 10.12 229.045 10.4C229.085 10.68 229.115 10.97 229.135 11.27C229.155 11.55 229.165 11.81 229.165 12.05C229.165 12.29 229.165 12.43 229.165 12.47V22.82C229.165 22.84 229.155 22.92 229.135 23.06C229.115 23.18 229.065 23.33 228.985 23.51C228.925 23.69 228.825 23.87 228.685 24.05C228.565 24.23 228.405 24.38 228.205 24.5C227.925 24.68 227.635 24.77 227.335 24.77C226.935 24.77 226.585 24.65 226.285 24.41C226.045 24.27 225.865 24.07 225.745 23.81C225.605 23.57 225.515 23.33 225.475 23.09C225.435 22.85 225.405 22.62 225.385 22.4V20.93H225.295C224.995 20.91 224.665 20.9 224.305 20.9C223.965 20.88 223.625 20.85 223.285 20.81C222.965 20.77 222.675 20.7 222.415 20.6C222.155 20.48 221.965 20.32 221.845 20.12C221.705 19.9 221.635 19.64 221.635 19.34C221.655 19.02 221.685 18.75 221.725 18.53C221.785 18.29 221.905 18.09 222.085 17.93C222.265 17.77 222.565 17.64 222.985 17.54C223.065 17.52 223.215 17.51 223.435 17.51C223.675 17.49 223.915 17.47 224.155 17.45C224.415 17.43 224.655 17.42 224.875 17.42C225.115 17.4 225.285 17.39 225.385 17.39V15.44C225.085 15.44 224.745 15.45 224.365 15.47C224.005 15.47 223.655 15.46 223.315 15.44C222.995 15.4 222.695 15.34 222.415 15.26C222.155 15.18 221.965 15.04 221.845 14.84C221.785 14.74 221.735 14.61 221.695 14.45C221.675 14.29 221.655 14.13 221.635 13.97C221.635 13.79 221.645 13.62 221.665 13.46C221.685 13.3 221.705 13.16 221.725 13.04C221.785 12.82 221.905 12.63 222.085 12.47C222.265 12.31 222.565 12.18 222.985 12.08C223.045 12.06 223.165 12.05 223.345 12.05C223.545 12.03 223.765 12.02 224.005 12.02C224.245 12 224.485 11.99 224.725 11.99C224.985 11.97 225.205 11.96 225.385 11.96C225.365 11.78 225.365 11.53 225.385 11.21C225.405 10.89 225.435 10.65 225.475 10.49C225.535 10.33 225.585 10.17 225.625 10.01C225.665 9.85 225.755 9.69 225.895 9.53C226.075 9.33 226.315 9.19 226.615 9.11C226.935 9.01 227.275 8.98 227.635 9.02C228.275 9.12 228.695 9.37 228.895 9.77ZM212.635 12.89C212.455 12.89 212.285 12.89 212.125 12.89C211.985 12.89 211.855 12.91 211.735 12.95C211.455 12.97 211.225 13.09 211.045 13.31C210.965 13.41 210.915 13.56 210.895 13.76C210.895 13.96 210.895 14.08 210.895 14.12V15.38C210.875 15.54 210.865 15.69 210.865 15.83C210.865 15.95 210.865 16.06 210.865 16.16V16.52C210.865 16.52 210.865 16.58 210.865 16.7C210.865 16.82 210.865 16.96 210.865 17.12C210.885 17.28 210.915 17.44 210.955 17.6C210.995 17.76 211.065 17.9 211.165 18.02C211.325 18.22 211.585 18.34 211.945 18.38C212.305 18.4 212.665 18.41 213.025 18.41H213.055C213.575 18.39 214.005 18.39 214.345 18.41C214.685 18.41 215.125 18.41 215.665 18.41C215.825 18.41 215.985 18.42 216.145 18.44C216.325 18.44 216.495 18.42 216.655 18.38C216.815 18.36 216.925 18.31 216.985 18.23C217.045 18.15 217.095 18.05 217.135 17.93C217.175 17.77 217.195 17.64 217.195 17.54C217.275 17.16 217.315 16.73 217.315 16.25C217.315 15.93 217.315 15.61 217.315 15.29C217.335 14.97 217.335 14.65 217.315 14.33C217.295 14.17 217.285 14.01 217.285 13.85C217.305 13.69 217.295 13.53 217.255 13.37C217.175 13.15 217.045 13.03 216.865 13.01C216.685 12.97 216.505 12.95 216.325 12.95L212.635 12.89ZM232.336 16.25C232.256 15.73 232.216 15.2 232.216 14.66C232.236 14.12 232.336 13.59 232.516 13.07C232.736 12.39 233.096 11.79 233.596 11.27C234.096 10.75 234.666 10.34 235.306 10.04C235.986 9.72 236.676 9.5 237.376 9.38C238.096 9.24 238.796 9.21 239.476 9.29C240.176 9.37 240.846 9.55 241.486 9.83C242.146 10.09 242.766 10.47 243.346 10.97C243.966 11.51 244.426 12.14 244.726 12.86C245.046 13.56 245.216 14.29 245.236 15.05C245.276 15.81 245.186 16.57 244.966 17.33C244.766 18.07 244.456 18.76 244.036 19.4C244.036 19.4 244.026 19.42 244.006 19.46C243.666 19.92 243.276 20.34 242.836 20.72C242.396 21.08 241.986 21.47 241.606 21.89C241.166 22.35 240.906 22.82 240.826 23.3C240.746 23.76 240.666 24.28 240.586 24.86C240.526 25.42 240.376 25.91 240.136 26.33C239.916 26.73 239.496 26.92 238.876 26.9C238.456 26.88 238.136 26.75 237.916 26.51C237.716 26.25 237.566 25.95 237.466 25.61C237.386 25.25 237.356 24.88 237.376 24.5C237.396 24.1 237.426 23.75 237.466 23.45C237.586 22.75 237.806 22.09 238.126 21.47C238.446 20.83 238.836 20.23 239.296 19.67C239.556 19.37 239.816 19.1 240.076 18.86C240.336 18.6 240.576 18.33 240.796 18.05C241.016 17.77 241.206 17.47 241.366 17.15C241.526 16.83 241.636 16.46 241.696 16.04C241.756 15.66 241.726 15.28 241.606 14.9C241.486 14.5 241.306 14.15 241.066 13.85C240.826 13.53 240.536 13.27 240.196 13.07C239.856 12.85 239.486 12.73 239.086 12.71C238.726 12.69 238.346 12.74 237.946 12.86C237.546 12.96 237.176 13.13 236.836 13.37C236.496 13.59 236.216 13.86 235.996 14.18C235.796 14.5 235.706 14.86 235.726 15.26C235.746 15.5 235.786 15.75 235.846 16.01C235.926 16.25 235.976 16.49 235.996 16.73C236.036 16.95 236.026 17.17 235.966 17.39C235.926 17.61 235.796 17.82 235.576 18.02C235.216 18.36 234.856 18.53 234.496 18.53C234.136 18.51 233.806 18.39 233.506 18.17C233.206 17.95 232.946 17.67 232.726 17.33C232.526 16.97 232.396 16.61 232.336 16.25ZM240.976 31.22C240.976 31.8 240.756 32.32 240.316 32.78C239.896 33.22 239.406 33.44 238.846 33.44C238.306 33.44 237.826 33.22 237.406 32.78C236.986 32.3 236.776 31.78 236.776 31.22C236.776 30.6 236.986 30.08 237.406 29.66C237.826 29.2 238.306 28.97 238.846 28.97C239.406 28.97 239.896 29.2 240.316 29.66C240.756 30.1 240.976 30.62 240.976 31.22Z" fill="white"/>
</svg>
