<svg width="28" height="30" viewBox="0 0 28 30" fill="none" xmlns="http://www.w3.org/2000/svg">
<path d="M19.061 2.18168C17.7579 0.774772 15.9378 0 13.9289 0C11.9092 0 10.0831 0.770085 8.78605 2.16829C7.47489 3.5819 6.83606 5.50309 6.98606 7.57763C7.28338 11.6705 10.3979 14.9999 13.9289 14.9999C17.4599 14.9999 20.569 11.6711 20.871 7.57897C21.023 5.52318 20.3802 3.60601 19.061 2.18168ZM25.7145 29.9998H2.14323C1.8347 30.0038 1.52916 29.939 1.24883 29.8101C0.968508 29.6812 0.720448 29.4914 0.522701 29.2545C0.0874361 28.7342 -0.0880094 28.0237 0.0419006 27.3052C0.607076 24.1699 2.37091 21.5363 5.14321 19.6874C7.60614 18.0461 10.726 17.1428 13.9289 17.1428C17.1318 17.1428 20.2516 18.0468 22.7145 19.6874C25.4868 21.5356 27.2507 24.1693 27.8158 27.3045C27.9458 28.0231 27.7703 28.7335 27.335 29.2538C27.1374 29.4908 26.8893 29.6807 26.609 29.8098C26.3287 29.9388 26.0231 30.0038 25.7145 29.9998Z" fill="#373737"/>
</svg>
