<svg width="42" height="39" viewBox="0 0 42 39" fill="none" xmlns="http://www.w3.org/2000/svg">
<path fill-rule="evenodd" clip-rule="evenodd" d="M0 24C0 15.7155 6.7155 9 15 9C23.2845 9 30 15.7155 30 24C30 32.2845 23.2845 39 15 39C6.7155 39 0 32.2845 0 24ZM7.8705 33.654L8.5605 29.5065C8.67732 28.806 9.03885 28.1697 9.58076 27.7107C10.1227 27.2518 10.8098 26.9999 11.52 27H18.48C19.1899 27.0003 19.8767 27.2523 20.4183 27.7112C20.9599 28.1701 21.3212 28.8063 21.438 29.5065L22.1295 33.654C20.0667 35.1816 17.5668 36.0042 15 36C12.4332 36.0043 9.93324 35.1816 7.8705 33.654ZM10.5 24V20.565C10.5 20.4258 10.5387 20.2894 10.6118 20.171C10.685 20.0526 10.7896 19.9568 10.914 19.8945L18.414 16.1445C18.5283 16.0872 18.6554 16.0601 18.7832 16.0658C18.911 16.0714 19.0352 16.1097 19.144 16.1769C19.2528 16.244 19.3427 16.3379 19.405 16.4496C19.4673 16.5613 19.5 16.6871 19.5 16.815V24H10.5Z" fill="#373737"/>
<circle cx="30.5" cy="11.5" r="11.5" fill="#0077E4"/>
<path d="M26.672 17V15.656C29.904 12.76 31.792 10.536 31.792 8.712C31.792 7.528 31.168 6.792 30.032 6.792C29.152 6.792 28.464 7.352 27.856 8.024L26.56 6.744C27.648 5.576 28.72 4.952 30.336 4.952C32.56 4.952 34.064 6.376 34.064 8.584C34.064 10.744 32.272 13.048 30.112 15.16C30.704 15.096 31.488 15.016 32.048 15.016H34.608V17H26.672Z" fill="#FAFAFA"/>
</svg>
