<svg width="42" height="39" viewBox="0 0 42 39" fill="none" xmlns="http://www.w3.org/2000/svg">
<path fill-rule="evenodd" clip-rule="evenodd" d="M0 24C0 15.7155 6.7155 9 15 9C23.2845 9 30 15.7155 30 24C30 32.2845 23.2845 39 15 39C6.7155 39 0 32.2845 0 24ZM7.8705 33.654L8.5605 29.5065C8.67732 28.806 9.03885 28.1697 9.58076 27.7107C10.1227 27.2518 10.8098 26.9999 11.52 27H18.48C19.1899 27.0003 19.8767 27.2523 20.4183 27.7112C20.9599 28.1701 21.3212 28.8063 21.438 29.5065L22.1295 33.654C20.0667 35.1816 17.5668 36.0042 15 36C12.4332 36.0043 9.93324 35.1816 7.8705 33.654ZM10.5 24V20.565C10.5 20.4258 10.5387 20.2894 10.6118 20.171C10.685 20.0526 10.7896 19.9568 10.914 19.8945L18.414 16.1445C18.5283 16.0872 18.6554 16.0601 18.7832 16.0658C18.911 16.0714 19.0352 16.1097 19.144 16.1769C19.2528 16.244 19.3427 16.3379 19.405 16.4496C19.4673 16.5613 19.5 16.6871 19.5 16.815V24H10.5Z" fill="#373737"/>
<circle cx="30.5" cy="11.5" r="11.5" fill="#0077E4"/>
<path d="M27 16.84V14.936H29.56V7.448H27.4V5.992C28.6 5.768 29.4 5.464 30.168 5H31.912V14.936H34.136V16.84H27Z" fill="#FAFAFA"/>
</svg>
