<svg width="28" height="30" viewBox="0 0 28 30" fill="none" xmlns="http://www.w3.org/2000/svg">
<path d="M25.3846 0H2.30769C1.69565 0 1.10868 0.21274 0.675907 0.591419C0.243131 0.970098 0 1.4837 0 2.01923V27.9808C0 28.5163 0.243131 29.0299 0.675907 29.4086C1.10868 29.7873 1.69565 30 2.30769 30H25.3846C25.9967 30 26.5836 29.7873 27.0164 29.4086C27.4492 29.0299 27.6923 28.5163 27.6923 27.9808V2.01923C27.6923 1.4837 27.4492 0.970098 27.0164 0.591419C26.5836 0.21274 25.9967 0 25.3846 0ZM8.07692 24.2308H5.76923V22.2115H8.07692V24.2308ZM8.07692 20.1923H5.76923V18.1731H8.07692V20.1923ZM8.07692 16.1538H5.76923V14.1346H8.07692V16.1538ZM8.07692 12.1154H5.76923V10.0962H8.07692V12.1154ZM8.07692 8.07692H5.76923V6.05769H8.07692V8.07692ZM21.9231 24.2308H10.3846V22.2115H21.9231V24.2308ZM21.9231 20.1923H10.3846V18.1731H21.9231V20.1923ZM21.9231 16.1538H10.3846V14.1346H21.9231V16.1538ZM21.9231 12.1154H10.3846V10.0962H21.9231V12.1154ZM21.9231 8.07692H10.3846V6.05769H21.9231V8.07692Z" fill="#373737"/>
</svg>
