<?xml version="1.0" encoding="UTF-8"?>
<svg id="_레이어_2" data-name="레이어 2" xmlns="http://www.w3.org/2000/svg" xmlns:xlink="http://www.w3.org/1999/xlink" viewBox="0 0 668 492.1">
  <defs>
    <style>
      .cls-1 {
        fill: url(#_무제_그라디언트_12-3);
      }

      .cls-1, .cls-2, .cls-3, .cls-4, .cls-5 {
        stroke-width: 0px;
      }

      .cls-2 {
        fill: url(#_무제_그라디언트_12-4);
      }

      .cls-3 {
        fill: url(#_무제_그라디언트_12-2);
      }

      .cls-4 {
        fill: url(#_무제_그라디언트_12-5);
      }

      .cls-5 {
        fill: url(#_무제_그라디언트_12);
      }
    </style>
    <linearGradient id="_무제_그라디언트_12" data-name="무제 그라디언트 12" x1="106.72" y1="246.05" x2="519.54" y2="246.05" gradientUnits="userSpaceOnUse">
      <stop offset=".28" stop-color="#ffdbeb"/>
      <stop offset="1" stop-color="#00ff89"/>
    </linearGradient>
    <linearGradient id="_무제_그라디언트_12-2" data-name="무제 그라디언트 12" x1="106.72" x2="519.54" xlink:href="#_무제_그라디언트_12"/>
    <linearGradient id="_무제_그라디언트_12-3" data-name="무제 그라디언트 12" x1="106.72" x2="519.54" xlink:href="#_무제_그라디언트_12"/>
    <linearGradient id="_무제_그라디언트_12-4" data-name="무제 그라디언트 12" x1="106.72" x2="519.54" xlink:href="#_무제_그라디언트_12"/>
    <linearGradient id="_무제_그라디언트_12-5" data-name="무제 그라디언트 12" x1="106.72" x2="519.54" xlink:href="#_무제_그라디언트_12"/>
  </defs>
  <g id="_레이어_1-2" data-name="레이어 1">
    <g>
      <path class="cls-5" d="M207.47,246.05c-38.09,135.89-110.28,246.05-161.24,246.05s-61.39-110.16-23.3-246.05C61.03,110.16,133.21,0,184.17,0s61.39,110.16,23.3,246.05Z"/>
      <path class="cls-3" d="M315.12,246.05c-38.09,135.89-110.28,246.05-161.24,246.05s-61.39-110.16-23.3-246.05C168.67,110.16,240.86,0,291.82,0s61.39,110.16,23.3,246.05Z"/>
      <path class="cls-1" d="M422.76,246.05c-38.09,135.89-110.28,246.05-161.24,246.05s-61.39-110.16-23.3-246.05C276.32,110.16,348.51,0,399.46,0s61.39,110.16,23.3,246.05Z"/>
      <path class="cls-2" d="M530.41,246.05c-38.09,135.89-110.28,246.05-161.24,246.05s-61.39-110.16-23.3-246.05C383.96,110.16,456.15,0,507.11,0s61.39,110.16,23.3,246.05Z"/>
      <path class="cls-4" d="M645.06,246.05c-38.09,135.89-110.28,246.05-161.24,246.05s-61.39-110.16-23.3-246.05C498.62,110.16,570.81,0,621.77,0s61.39,110.16,23.3,246.05Z"/>
    </g>
  </g>
</svg>